<!DOCTYPE svg PUBLIC "-//W3C//DTD SVG 1.1//EN" "http://www.w3.org/Graphics/SVG/1.1/DTD/svg11.dtd">
<!--
 * Humanity icon theme
 * License: GNU GPL 2 http://www.gnu.org/licenses/gpl-2.0.html
 * Sprite of 4 images created with: Inkscape http://www.inkscape.org/
 * File cleaned with: python scour -enable-id-stripping -indent=tab -strip-xml-prolog -protect-ids-prefix=browser,delete,edit,zoom
-->
<svg width="16" height="16" xmlns="http://www.w3.org/2000/svg" version="1.1">
	<style><![CDATA[
svg > g > g { display:none; }
svg > g > g:target { display:block; outline:none; }
]]></style>
	<defs>
		<radialGradient id="radialGradient8198" gradientUnits="userSpaceOnUse" cy="143.83" cx="127.32" gradientTransform="matrix(.041797 -.013884 .0033869 .037975 -.54191 -.79595)" r="78.728">
			<stop stop-color="#f5f5f5" offset="0"/>
			<stop stop-color="#e7e7e7" offset=".25028"/>
			<stop stop-color="#8c8c8c" offset=".69349"/>
			<stop stop-color="#ddd" offset=".83543"/>
			<stop stop-color="#a8a8a8" offset="1"/>
		</radialGradient>
		<radialGradient id="radialGradient8201" gradientUnits="userSpaceOnUse" cy="42" cx="24" gradientTransform="matrix(.33333 0 0 .14286 6.5e-7 8)" r="21">
			<stop stop-color="#fff" offset="0"/>
			<stop stop-color="#fff" stop-opacity="0" offset="1"/>
		</radialGradient>
		<radialGradient id="radialGradient8208" gradientUnits="userSpaceOnUse" cy="191.85" cx="142.62" gradientTransform="matrix(.061651 0 0 -.065372 -1.0371 17.524)" r="78.728"/>
		<radialGradient id="radialGradient8211" gradientUnits="userSpaceOnUse" cy="206.43" cx="141.75" gradientTransform="matrix(.12709 -.0021289 .00094059 .12249 -10.298 -14.5)" r="78.728"/>
		<radialGradient id="radialGradient8215" gradientUnits="userSpaceOnUse" cy="2.3118" cx="4.1993" gradientTransform="matrix(1.1767 1.0377 -.76928 .87233 1.0364 -3.2772)" r="8">
			<stop stop-color="#e6e6e6" offset="0"/>
			<stop stop-color="#c8c8c8" offset="1"/>
		</radialGradient>
		<linearGradient id="linearGradient8217" y2="6.8647" gradientUnits="userSpaceOnUse" x2="2.2246" gradientTransform="matrix(.64516 0 0 .97976 .25806 -6.7257)" y1="11.321" x1="4.6104">
			<stop stop-color="#969696" offset="0"/>
			<stop stop-color="#b4b4b4" offset="1"/>
		</linearGradient>
		<linearGradient id="linearGradient8220" y2="33.759" gradientUnits="userSpaceOnUse" x2="12.222" gradientTransform="matrix(.55458 0 0 .35955 -2.1323 1.7913)" y1="37.206" x1="12.277">
			<stop stop-color="#eee" offset="0"/>
			<stop stop-color="#eee" stop-opacity="0" offset="1"/>
		</linearGradient>
		<linearGradient id="linearGradient8223" y2="35.281" gradientUnits="userSpaceOnUse" x2="24.688" gradientTransform="matrix(.55458 0 0 .35955 -1.6911 1.3146)" y1="35.281" x1="7.0625">
			<stop offset="0"/>
			<stop stop-color="#bbb" stop-opacity="0" offset="1"/>
		</linearGradient>
		<linearGradient id="linearGradient8226" y2="104.28" gradientUnits="userSpaceOnUse" x2="53.991" gradientTransform="matrix(.12421 0 0 .1864 .23313 -3.9907)" y1="87.896" x1="53.991">
			<stop stop-color="#7a7a7a" offset="0"/>
			<stop stop-color="#474747" offset="1"/>
		</linearGradient>
		<linearGradient id="linearGradient3374" y2="20.71" gradientUnits="userSpaceOnUse" x2=".81572" gradientTransform="matrix(0 -.31945 -.31335 0 15.561 13.086)" y1="20.71" x1="28.315">
			<stop stop-color="#d0e08f" offset="0"/>
			<stop stop-color="#9fba48" offset="1"/>
		</linearGradient>
		<linearGradient id="linearGradient2476" y2="10.936" gradientUnits="userSpaceOnUse" x2="18.678" gradientTransform="matrix(.66608 0 0 .76587 -.5708 -.5708)" y1="10.936" x1="7.8322">
			<stop stop-color="#fff" offset="0"/>
			<stop stop-color="#fff" stop-opacity="0" offset="1"/>
		</linearGradient>
		<linearGradient id="linearGradient2479" y2="5.4676" gradientUnits="userSpaceOnUse" x2="63.397" gradientTransform="matrix(.74324 0 0 .74322 -38.23 10.609)" y1="-12.489" x1="63.397">
			<stop stop-color="#fff" offset="0"/>
			<stop stop-color="#fff" stop-opacity="0" offset="1"/>
		</linearGradient>
		<radialGradient id="radialGradient2482" gradientUnits="userSpaceOnUse" cy="3.99" cx="23.896" gradientTransform="matrix(0 .87966 -1.1611 0 12.633 -21.084)" r="20.397">
			<stop stop-color="#f8b17e" offset="0"/>
			<stop stop-color="#e35d4f" offset=".26238"/>
			<stop stop-color="#c6262e" offset=".66094"/>
			<stop stop-color="#690b54" offset="1"/>
		</radialGradient>
		<linearGradient id="linearGradient2484" y2="3.0816" gradientUnits="userSpaceOnUse" x2="18.379" gradientTransform="matrix(.36857 0 0 .36857 -.84577 -.84577)" y1="44.98" x1="18.379">
			<stop stop-color="#791235" offset="0"/>
			<stop stop-color="#dd3b27" offset="1"/>
		</linearGradient>
		<linearGradient id="linearGradient8639" y2="31.211" gradientUnits="userSpaceOnUse" x2="23.576" gradientTransform="matrix(.41578 -.41749 .51898 .51462 -15.747 2.6504)" y1="25.357" x1="23.576">
			<stop stop-color="#181818" offset="0"/>
			<stop stop-color="#dbdbdb" offset=".13483"/>
			<stop stop-color="#a4a4a4" offset=".20224"/>
			<stop stop-color="#fff" offset=".26966"/>
			<stop stop-color="#8d8d8d" offset=".4465"/>
			<stop stop-color="#959595" offset=".57114"/>
			<stop stop-color="#cecece" offset=".72038"/>
			<stop stop-color="#181818" offset="1"/>
		</linearGradient>
		<linearGradient id="linearGradient8641" y2="30" gradientUnits="userSpaceOnUse" x2="30.038" gradientTransform="matrix(.40402 -.40569 .60738 .60227 -17.868 .69303)" y1="24.99" x1="30.038">
			<stop stop-color="#565656" offset="0"/>
			<stop stop-color="#9a9a9a" offset=".5"/>
			<stop stop-color="#545454" offset="1"/>
		</linearGradient>
		<linearGradient id="linearGradient8643" y2="30" gradientUnits="userSpaceOnUse" x2="30.038" gradientTransform="matrix(.40402 -.40569 .60738 .60227 -17.983 .80921)" y1="24.99" x1="30.038">
			<stop stop-color="#b1b1b1" offset="0"/>
			<stop stop-color="#fff" offset=".5"/>
			<stop stop-color="#8f8f8f" offset="1"/>
		</linearGradient>
		<linearGradient id="linearGradient8645" y2="30" gradientUnits="userSpaceOnUse" x2="30.038" gradientTransform="matrix(.40402 -.40569 .60738 .60227 -17.466 .28929)" y1="24.99" x1="30.038">
			<stop stop-color="#565656" offset="0"/>
			<stop stop-color="#9a9a9a" offset=".5"/>
			<stop stop-color="#545454" offset="1"/>
		</linearGradient>
		<linearGradient id="linearGradient8647" y2="30" gradientUnits="userSpaceOnUse" x2="30.038" gradientTransform="matrix(.40402 -.40569 .60738 .60227 -17.581 .40547)" y1="24.99" x1="30.038">
			<stop stop-color="#b1b1b1" offset="0"/>
			<stop stop-color="#fff" offset=".5"/>
			<stop stop-color="#8f8f8f" offset="1"/>
		</linearGradient>
		<linearGradient id="linearGradient8649" y2="30" gradientUnits="userSpaceOnUse" x2="30.038" gradientTransform="matrix(.40402 -.40569 .60738 .60227 -17.062 -.11641)" y1="24.99" x1="30.038">
			<stop stop-color="#565656" offset="0"/>
			<stop stop-color="#9a9a9a" offset=".5"/>
			<stop stop-color="#545454" offset="1"/>
		</linearGradient>
		<linearGradient id="linearGradient8651" y2="30" gradientUnits="userSpaceOnUse" x2="30.038" gradientTransform="matrix(.40402 -.40569 .60738 .60227 -17.177 -.0002197)" y1="24.99" x1="30.038">
			<stop stop-color="#b1b1b1" offset="0"/>
			<stop stop-color="#fff" offset=".5"/>
			<stop stop-color="#8f8f8f" offset="1"/>
		</linearGradient>
		<linearGradient id="linearGradient8653" y2="26.03" gradientUnits="userSpaceOnUse" x2="9" gradientTransform="matrix(.40402 -.40569 .60738 .60227 -17.637 .46249)" y1="29.057" x1="9">
			<stop stop-color="#ece5a5" offset="0"/>
			<stop stop-color="#fcfbf2" offset="1"/>
		</linearGradient>
		<linearGradient id="linearGradient8655" y2="41.392" gradientUnits="userSpaceOnUse" x2="9.5221" gradientTransform="matrix(.37638 .036153 .0367 .37487 -2.2183 -1.1331)" y1="37.372" x1="5.5179">
			<stop stop-color="#dbce48" offset="0"/>
			<stop stop-color="#c5b625" offset="1"/>
		</linearGradient>
	</defs>
	<g transform="translate(508 -235.79)">
		<g transform="translate(-508 235.79)" id="browser-download">
			<path stroke-linejoin="round" d="m15.497 12.5c-0.30416 2.535-0.22639 2.9839-0.77717 2.9839-0.21573 0.03617-8.6983 0-13.47 0-0.59814 0-0.447 0.04932-0.7499-2.9839 4.8142 0.13977 10.032-0.37056 14.997 0z" stroke="#353537" fill="url(#linearGradient8226)"/>
			<path fill-rule="evenodd" fill="url(#linearGradient8223)" d="m2 13h10v2h-9.7744l-0.2256-2z"/>
			<path opacity=".81143" d="m2.2256 15-0.1504-1.442c1.0179 1.143 4.7514 1.442 7.3252 1.442h-7.1749z" fill-rule="evenodd" fill="url(#linearGradient8220)"/>
			<path stroke-linejoin="round" d="m1.4897 1.4658-0.97495 11.023c-0.00975 0-0.01475 0.003-0.01475 0.011h15c0-0.0082-0.005-0.01111-0.01475-0.01111l-1.005-11.241s-0.18775-0.7434-0.90964-0.7434c-0.68815 0-10.535-0.004447-11.26-0.004447-0.75868 0-0.82051 0.96576-0.82051 0.96576z" stroke="url(#linearGradient8217)" stroke-linecap="round" fill="url(#radialGradient8215)"/>
			<path opacity=".7" stroke-linejoin="round" d="m1.4763 12.5h13.047" stroke="#fff" stroke-linecap="round" fill="none"/>
			<path fill="url(#radialGradient8211)" d="m9.875 1.0312c-0.3325 0-0.5854 0.1622-0.5938 0.4063-1.735 2.8172-5.5652 1.8935-7.0937 5.25-0.0802 0.8627 0.1259 1.9826 0.9063 2.6875 1.1422 1.032 3.0442 1.666 5.0624 1.625 4.1658-0.085 7.8348-2.8002 4.6558-6.3438-0.017-0.2448-0.25-3.2187-0.25-3.2187-0.017-0.2408-0.294-0.4063-0.624-0.4063h-2.0625zm-0.0312 0.4375h2.0625c0.1199 0 0.214 0.027064 0.21875 0.09375l-0.437 3.0938c3.473 2.8052 0.258 5.1235-3.438 5.25-3.3581 0.1148-5.2801-1.0583-5.0938-3.0624 1.1782-3.3771 5.7075-1.762 6.4688-5.2813-0.0195-0.0627 0.1015-0.0937 0.2188-0.0937z"/>
			<path fill="url(#radialGradient8208)" d="m7.9999 8.9999c-0.6661 0.0041-1.382-0.2351-1.7816-0.7954-0.3304-0.4668-0.277-1.1624 0.1311-1.5665 0.4834-0.5182 1.2373-0.6875 1.9225-0.6251 0.6071 0.0562 1.2385 0.3314 1.5635 0.8701 0.2516 0.434 0.2116 1.0212-0.1189 1.4039-0.4067 0.5079-1.0866 0.7129-1.7166 0.713zm0.0335-2.0595c-0.4657 0.0106-0.9649-0.0032-1.3803 0.2407-0.2744 0.1909-0.298 0.6023-0.1132 0.8636 0.2517 0.392 0.7264 0.5638 1.1687 0.6235 0.5705 0.0718 1.1976-0.0568 1.6262-0.4584 0.2414-0.24 0.3518-0.6735 0.1113-0.9512-0.2382-0.2503-0.6084-0.2735-0.932-0.3044-0.16-0.0106-0.3204-0.0122-0.4806-0.0138z"/>
			<g transform="matrix(-.046858 0 0 .077502 4.3055 -2.9911)">
				<path fill="#535353" d="m37.925 187.15c0.31446 3.4586 5.0238 6.279 10.514 6.279 5.4879 0 9.6432-2.8205 9.2763-6.279-0.36437-3.4402-5.0712-6.2181-10.507-6.2181-5.438 0.002-9.5933 2.7778-9.2838 6.2181z"/>
			</g>
			<g transform="matrix(-.046858 0 0 .077502 16.206 -2.9911)">
				<path fill="#535353" d="m37.925 187.15c0.31446 3.4586 5.0238 6.279 10.514 6.279 5.4879 0 9.6432-2.8205 9.2763-6.279-0.36437-3.4402-5.0712-6.2181-10.507-6.2181-5.438 0.002-9.5933 2.7778-9.2838 6.2181z"/>
			</g>
			<rect opacity=".2" height="2" width="14" y="13" x="1" fill="url(#radialGradient8201)"/>
			<path fill="url(#radialGradient8198)" d="m3.549 1.2794c0.0331 0.1845-0.0457 0.3887-0.0724 0.5784-0.1124 0.5802-0.2285 1.1596-0.3378 1.7404-0.1023 0.3783 0.2646 0.2244 0.31 0.2628 0.4797-0.1831 0.955-0.3835 1.4326-0.5748 0.4982-0.2038 0.9995-0.4013 1.4959-0.6091 0.313-0.1862 0.4048-0.3533 0.4863-0.6342 0.0449-0.2439 0.0503-0.5166-0.0716-0.7395-0.0781-0.154-0.2485-0.2192-0.4122-0.196h-2.6026l-0.2282 0.172zm0.58899 0.44397c0.59213 0 1.1843-1e-7 1.7764-1e-7 0.1871 0.070513 0.054625 0.21948-0.083295 0.23252-0.6014 0.2439-1.2028 0.4878-1.8041 0.7317-0.1446 0.0544-0.155-0.1673-0.1113-0.2613 0.037079-0.20752 0.074157-0.41504 0.11124-0.62256 0.041217-0.021125 0.065659-0.065363 0.11102-0.080349z"/>
			<path stroke-linejoin="round" d="m12.5 5.5-4.4403 5-4.5597-5h2v-5h5v5h2z" stroke="#699536" stroke-linecap="round" stroke-width=".99829" fill="url(#linearGradient3374)"/>
		</g>
		<g transform="translate(-508 235.79)" id="delete">
			<path stroke-linejoin="round" d="m8 0.50183c-4.1372 0-7.4982 3.3609-7.4982 7.4982 0 4.1372 3.3609 7.4982 7.4982 7.4982 4.1372 0 7.4982-3.3609 7.4982-7.4982 0-4.1372-3.3609-7.4982-7.4982-7.4982zm0 2.4072c2.8128 0 5.0909 2.2782 5.0909 5.0909 0 1.1805-0.40902 2.2581-1.0827 3.1214l-6.4498-7.59c0.7247-0.3965 1.5571-0.6219 2.4418-0.6219zm-4.0773 2.0503 6.4273 7.5557c-0.70294 0.36622-1.5018 0.5759-2.3497 0.5759-2.8128 0-5.0909-2.2782-5.0909-5.0909 0-1.1427 0.37851-2.1914 1.0136-3.0407z" stroke="url(#linearGradient2484)" stroke-linecap="round" stroke-width="1.0037" fill="url(#radialGradient2482)"/>
			<path opacity=".4" d="m14.5 7.9998c0 3.5902-2.91 6.5002-6.4999 6.5002s-6.5001-2.91-6.5001-6.5002c0-3.5898 2.9102-6.4998 6.5001-6.4998s6.4999 2.91 6.4999 6.4998z" stroke="url(#linearGradient2479)" fill="none"/>
			<path opacity=".4" d="m4.8518 4.2102 6.3842 7.4918" stroke="url(#linearGradient2476)" stroke-linecap="round" stroke-width="1px" fill="none"/>
		</g>
		<g transform="translate(-508 235.75)" id="edit">
			<path opacity=".15" d="m13.22 12.085c-0.1356-0.02111-0.23946-0.01225-0.30769 0.003l-9.0875 2.0172-1.6725 0.37219-0.051633 0.008-1.9387 1.4327 4.9498-0.07402 0.040722-0.0095 1.6834-0.3707 9.0846-2.0326c0.27291-0.06092-0.1773-0.40993-1.01-0.78431-0.62452-0.28079-1.2837-0.49854-1.6905-0.56188z" fill-rule="evenodd" fill="#0c0c0c"/>
			<g transform="matrix(1.03 0 0 1.0325 -.016773 -.52153)">
				<path stroke-linejoin="round" d="m2.0488 11.037c0.28654-0.20771 1.148 0.25639 1.9603 1.0619 0.81045 0.80363 1.2602 1.6413 1.0576 1.9306-0.0007708 0.0011 0.01977 0.01774 0.01898 0.01882l10.138-10.18c0.258-0.2581-0.213-1.1432-1.051-1.9744-0.838-0.8311-1.728-1.295-1.986-1.0366l-10.138 10.18z" stroke="#0c0c0c" stroke-width=".48484" fill="url(#linearGradient8639)"/>
				<path opacity=".8" stroke-linejoin="round" d="m10.565 2.4841c0.28654-0.20771 1.148 0.25639 1.9603 1.0619 0.81044 0.80363 1.2602 1.6413 1.0576 1.9306-0.000769 0.0011 0.01977 0.017738 0.01898 0.018821l1.552-1.5571c0.409-0.4086-0.029-1.0928-0.981-2.0447-0.813-0.8055-1.674-1.2696-1.96-1.0619l-0.02525 0.025356-1.6218 1.6271z" stroke="#e28ccd" stroke-width=".48484" fill="#ffb6ed"/>
				<path opacity=".6" fill="#0c0c0c" d="m2.0488 11.037c0.28654-0.20771 1.148 0.25639 1.9603 1.0619 0.81044 0.80363 1.2602 1.6413 1.0576 1.9306-0.0007714 0.0011 0.01977 0.01774 0.01898 0.01882l6.982-7.0109 0.02525-0.025356c0.00079-0.00108-0.01975-0.01772-0.01898-0.01882 0.203-0.2885-0.247-1.1262-1.058-1.9298-0.812-0.8056-1.6734-1.2697-1.9599-1.062l-0.025251 0.025355-6.982 7.0109z"/>
				<path fill="url(#linearGradient8641)" d="m9.1785 3.8767c0.28654-0.20771 1.148 0.25639 1.9603 1.0619 0.81044 0.80363 1.2602 1.6413 1.0576 1.9306-0.000771 0.0011 0.01977 0.017736 0.01898 0.01882l0.12626-0.12678c0.00079-0.00108-0.01975-0.01772-0.01898-0.01882 0.203-0.2892-0.246-1.1269-1.057-1.9305-0.812-0.8056-1.6737-1.2697-1.9602-1.062l-0.1256 0.1268z"/>
				<path fill="url(#linearGradient8643)" d="m9.0628 3.9929c0.28654-0.20771 1.148 0.25639 1.9603 1.0619 0.81044 0.80363 1.2602 1.6413 1.0576 1.9306-0.000771 0.0011 0.01977 0.017738 0.01898 0.018822l0.126-0.1268c0.00079-0.00108-0.01975-0.017721-0.01898-0.018821 0.203-0.2892-0.247-1.1269-1.058-1.9305-0.812-0.8056-1.6734-1.2697-1.9599-1.062l-0.1263 0.1268z"/>
				<path fill="url(#linearGradient8645)" d="m9.5806 3.473c0.28654-0.20771 1.148 0.25639 1.9603 1.0619 0.81045 0.80363 1.2602 1.6413 1.0576 1.9306-0.000773 0.0011 0.01977 0.017737 0.01898 0.01882l0.12626-0.12678c0.000791-0.00108-0.01975-0.017721-0.01898-0.01882 0.202-0.2892-0.247-1.1269-1.058-1.9306-0.812-0.8055-1.6736-1.2696-1.9601-1.0619l-0.1263 0.1268z"/>
				<path fill="url(#linearGradient8647)" d="m9.4649 3.5891c0.28654-0.20771 1.148 0.25639 1.9603 1.0619 0.81045 0.80363 1.2602 1.6413 1.0576 1.9306-0.000769 0.0011 0.01977 0.017737 0.01898 0.018821l0.12626-0.12678c0.00079-0.00108-0.01975-0.01772-0.01898-0.01882 0.203-0.2892-0.247-1.1269-1.057-1.9305-0.813-0.8055-1.6743-1.2696-1.9608-1.0619l-0.1263 0.1267z"/>
				<path fill="url(#linearGradient8649)" d="m9.9846 3.0673c0.2864-0.2077 1.1484 0.2564 1.9604 1.0619 0.81045 0.80363 1.2602 1.6413 1.0576 1.9306-0.00077 0.0011 0.01977 0.017738 0.01898 0.018821l0.126-0.1268c0-0.0011-0.02-0.0177-0.019-0.0188 0.202-0.2892-0.247-1.1269-1.058-1.9306-0.812-0.8055-1.674-1.2696-1.96-1.0619l-0.1268 0.1268z"/>
				<path fill="url(#linearGradient8651)" d="m9.8689 3.1835c0.28654-0.20771 1.148 0.25639 1.9603 1.0619 0.81044 0.80363 1.2602 1.6413 1.0576 1.9306-0.000771 0.0011 0.01977 0.017737 0.01898 0.018821l0.12626-0.12678c0.000789-0.00108-0.01975-0.017722-0.01898-0.018821 0.203-0.2892-0.247-1.1269-1.057-1.9306-0.813-0.8055-1.674-1.2696-1.9608-1.0619l-0.1263 0.1268z"/>
				<path d="m0.25981 15.794 4.7719-1.7255 0.039308-0.03926c0.2026-0.289-0.2524-1.127-1.0629-1.93-0.8124-0.806-1.6727-1.268-1.9592-1.06l-1.7891 4.755z" fill-rule="evenodd" stroke="url(#linearGradient8655)" stroke-width=".48484" fill="url(#linearGradient8653)"/>
				<path d="m0.74443 14.506-0.48521 1.283 1.3014-0.473c-0.1137-0.134-0.2193-0.268-0.3544-0.402-0.1555-0.154-0.30703-0.281-0.46175-0.408z" fill-rule="evenodd" stroke="#0c0c0c" stroke-width=".48484" fill="#0c0c0c"/>
			</g>
		</g>
		<g transform="translate(-507.66 235.79)" id="zoom">
			<path fill-rule="evenodd" fill="#4d4d4d" d="m7.9402 10.056 5.5131 5.7901c0.09497 0.10582 0.23427 0.16205 0.38313 0.15465s0.29323-0.07774 0.39706-0.19345l0.94443-1.0513c0.19322-0.21977 0.19232-0.53772-0.0021-0.72168l-5.5455-5.3566-1.6893 1.3786z"/>
			<path d="m6 11c-3 0-5-1.9411-5-5 0-3 1.9064-5 5-5 3 0 5 2 5 5 0 2.7758-1.8917 5-5 5z" fill-rule="evenodd" fill-opacity=".58824" stroke="#4d4d4d" stroke-width="2" fill="#fff"/>
			<path fill="#4d4d4d" d="m-8.7 7h0.4c0.1662 0 0.3 0.1338 0.3 0.3v1.4c0 0.1662-0.1338 0.3-0.3 0.3h-0.4c-0.1662 0-0.3-0.1338-0.3-0.3v-1.4c0-0.1662 0.1338-0.3 0.3-0.3zm0 1h1.4c0.1662 0 0.3 0.1338 0.3 0.3v0.4c0 0.1662-0.1338 0.3-0.3 0.3h-1.4c-0.1662 0-0.3-0.1338-0.3-0.3v-0.4c0-0.1662 0.1338-0.3 0.3-0.3zm0-3h0.4c0.1662 0 0.3-0.1338 0.3-0.3v-1.4c0-0.1662-0.1338-0.3-0.3-0.3h-0.4c-0.1662 0-0.3 0.1338-0.3 0.3v1.4c0 0.1662 0.1338 0.3 0.3 0.3zm0-1h1.4c0.1662 0 0.3-0.1338 0.3-0.3v-0.4c0-0.1662-0.1338-0.3-0.3-0.3h-1.4c-0.1662 0-0.3 0.1338-0.3 0.3v0.4c0 0.1662 0.1338 0.3 0.3 0.3zm5.4 1h-0.4c-0.1662 0-0.3-0.1338-0.3-0.3v-1.4c0-0.1662 0.1338-0.3 0.3-0.3h0.4c0.1662 0 0.3 0.1338 0.3 0.3v1.4c0 0.1662-0.1338 0.3-0.3 0.3zm0-1h-1.4c-0.1662 0-0.3-0.1338-0.3-0.3v-0.4c0-0.1662 0.1338-0.3 0.3-0.3h1.4c0.1662 0 0.3 0.1338 0.3 0.3v0.4c0 0.1662-0.1338 0.3-0.3 0.3zm0 3h-0.4c-0.1662 0-0.3 0.1338-0.3 0.3v1.4c0 0.1662 0.1338 0.3 0.3 0.3h0.4c0.1662 0 0.3-0.1338 0.3-0.3v-1.4c0-0.1662-0.1338-0.3-0.3-0.3zm0 1h-1.4c-0.1662 0-0.3 0.1338-0.3 0.3v0.4c0 0.1662 0.1338 0.3 0.3 0.3h1.4c0.1662 0 0.3-0.1338 0.3-0.3v-0.4c0-0.1662-0.1338-0.3-0.3-0.3z" transform="scale(-1,1)"/>
		</g>
	</g>
</svg>
