<!DOCTYPE svg PUBLIC "-//W3C//DTD SVG 1.1//EN" "http://www.w3.org/Graphics/SVG/1.1/DTD/svg11.dtd">
<!--
 * Humanity icon theme
 * License: GNU GPL 2 http://www.gnu.org/licenses/gpl-2.0.html
 * File cleaned with: python scour -enable-id-stripping -indent=tab -strip-xml-prolog
-->
<svg xmlns="http://www.w3.org/2000/svg" width="16" height="16" version="1.1">
	<path d="m7.9402 10.056 5.5131 5.7901c0.09497 0.10582 0.23427 0.16205 0.38313 0.15465s0.29323-0.07774 0.39706-0.19345l0.94443-1.0513c0.19322-0.21977 0.19232-0.53772-0.0021-0.72168l-5.5455-5.3566-1.6893 1.3786z" fill-rule="evenodd" fill="#4d4d4d"/>
	<path d="m6 11c-3 0-5-1.9411-5-5 0-3 1.9064-5 5-5 3 0 5 2 5 5 0 2.7758-1.8917 5-5 5z" fill-rule="evenodd" fill-opacity=".58824" stroke="#4d4d4d" stroke-width="2" fill="#fff"/>
	<path d="m-8.7 7h0.4c0.1662 0 0.3 0.1338 0.3 0.3v1.4c0 0.1662-0.1338 0.3-0.3 0.3h-0.4c-0.1662 0-0.3-0.1338-0.3-0.3v-1.4c0-0.1662 0.1338-0.3 0.3-0.3zm0 1h1.4c0.1662 0 0.3 0.1338 0.3 0.3v0.4c0 0.1662-0.1338 0.3-0.3 0.3h-1.4c-0.1662 0-0.3-0.1338-0.3-0.3v-0.4c0-0.1662 0.1338-0.3 0.3-0.3zm0-3h0.4c0.1662 0 0.3-0.1338 0.3-0.3v-1.4c0-0.1662-0.1338-0.3-0.3-0.3h-0.4c-0.1662 0-0.3 0.1338-0.3 0.3v1.4c0 0.1662 0.1338 0.3 0.3 0.3zm0-1h1.4c0.1662 0 0.3-0.1338 0.3-0.3v-0.4c0-0.1662-0.1338-0.3-0.3-0.3h-1.4c-0.1662 0-0.3 0.1338-0.3 0.3v0.4c0 0.1662 0.1338 0.3 0.3 0.3zm5.4 1h-0.4c-0.1662 0-0.3-0.1338-0.3-0.3v-1.4c0-0.1662 0.1338-0.3 0.3-0.3h0.4c0.1662 0 0.3 0.1338 0.3 0.3v1.4c0 0.1662-0.1338 0.3-0.3 0.3zm0-1h-1.4c-0.1662 0-0.3-0.1338-0.3-0.3v-0.4c0-0.1662 0.1338-0.3 0.3-0.3h1.4c0.1662 0 0.3 0.1338 0.3 0.3v0.4c0 0.1662-0.1338 0.3-0.3 0.3zm0 3h-0.4c-0.1662 0-0.3 0.1338-0.3 0.3v1.4c0 0.1662 0.1338 0.3 0.3 0.3h0.4c0.1662 0 0.3-0.1338 0.3-0.3v-1.4c0-0.1662-0.1338-0.3-0.3-0.3zm0 1h-1.4c-0.1662 0-0.3 0.1338-0.3 0.3v0.4c0 0.1662 0.1338 0.3 0.3 0.3h1.4c0.1662 0 0.3-0.1338 0.3-0.3v-0.4c0-0.1662-0.1338-0.3-0.3-0.3z" transform="scale(-1,1)" fill="#4d4d4d"/>
</svg>
