<!DOCTYPE svg PUBLIC "-//W3C//DTD SVG 1.1//EN" "http://www.w3.org/Graphics/SVG/1.1/DTD/svg11.dtd">
<!--
 * Humanity icon theme
 * License: GNU GPL 2 http://www.gnu.org/licenses/gpl-2.0.html
 * File cleaned with: python scour -enable-id-stripping -indent=tab -strip-xml-prolog
-->
<svg xmlns="http://www.w3.org/2000/svg" width="24" height="24" version="1.1">
	<defs>
		<radialGradient id="radialGradient5554" gradientUnits="userSpaceOnUse" cy="15.28" cx="11.537" gradientTransform="matrix(.34490 -.0026213 0.00146 .19209 2.5148 9.5924)" r="13">
			<stop stop-color="#fff" offset="0"/>
			<stop stop-color="#fff" stop-opacity="0" offset="1"/>
		</radialGradient>
		<linearGradient id="linearGradient5562" y2="33" gradientUnits="userSpaceOnUse" x2="22.008" gradientTransform="matrix(.48359 0 0 .45973 .39379 1.5874)" y1="21" x1="21.919">
			<stop stop-color="#6e6e6e" offset="0"/>
			<stop stop-color="#1e1e1e" offset="1"/>
		</linearGradient>
		<linearGradient id="linearGradient5564" y2="21" gradientUnits="userSpaceOnUse" x2="15.335" gradientTransform="matrix(.48359 0 0 .45973 .39379 1.5874)" y1="33" x1="15.601">
			<stop stop-color="#2e3436" offset="0"/>
			<stop stop-color="#555753" offset="1"/>
		</linearGradient>
		<radialGradient id="radialGradient5577" gradientUnits="userSpaceOnUse" cy="11.918" cx="3.7591" gradientTransform="matrix(.46334 .0080418 -.0058515 .28835 .94804 9.495)" r="21">
			<stop stop-color="#fff" offset="0"/>
			<stop stop-color="#fff" stop-opacity="0" offset="1"/>
		</radialGradient>
		<linearGradient id="linearGradient5581" y2="37" gradientUnits="userSpaceOnUse" x2="11.506" gradientTransform="matrix(.48837 0 0 0.5 .27903 1.2499)" y1="20" x1="11.519">
			<stop stop-color="#fefefe" offset="0"/>
			<stop stop-color="#bebebe" offset="1"/>
		</linearGradient>
		<linearGradient id="linearGradient5583" y2="20" gradientUnits="userSpaceOnUse" x2="20.279" gradientTransform="matrix(.48837 0 0 0.5 .27903 1.2499)" y1="37" x1="20.562">
			<stop stop-color="#828282" offset="0"/>
			<stop stop-color="#aaa" offset="1"/>
		</linearGradient>
		<radialGradient id="radialGradient5591" gradientUnits="userSpaceOnUse" cy="41.875" cx="24" gradientTransform="matrix(.62745 0 0 .16993 -3.0588 13.634)" r="19.125">
			<stop offset="0"/>
			<stop stop-opacity="0" offset="1"/>
		</radialGradient>
		<linearGradient id="linearGradient6666" y2="3" gradientUnits="userSpaceOnUse" x2="12" y1="10" x1="12">
			<stop stop-color="#787878" offset="0"/>
			<stop stop-color="#787878" stop-opacity="0" offset="1"/>
		</linearGradient>
	</defs>
	<path opacity=".7" d="m24 20.75c0 1.795-5.373 3.25-12 3.25-6.6274 0-12-1.455-12-3.25 5e-8 -1.795 5.3726-3.25 12-3.25s12 1.4551 12 3.25z" fill="url(#radialGradient5591)"/>
	<rect stroke-linejoin="round" rx=".29157" ry=".36185" height="11" width="15" stroke="#3c3d3a" stroke-linecap="round" y="5.5" x="4.5" stroke-width="1.0001" fill="#505050"/>
	<g transform="translate(4 1)">
		<path stroke-linejoin="round" d="m1.4976 0.49763 13.005 0.002374v15.002h-13.005v-15.005z" stroke="#b5b6b2" stroke-width=".99525" fill="#f4f4f4"/>
	</g>
	<path d="m2.5074 19.5c0.037084 0.51806-0.096022 1.0755 0.11744 1.5555 0.40044 0.60919 1.2842 0.40888 1.8752 0.44374 0.010664 0.35961 0.043357 0.91477 0.5 0.99127 4.8239 0.01951 9.1756 0.0028 14 0.0084 0.49786 0.01588 0.5161-0.58079 0.5-0.95942 0.1626-0.09327 0.62471-0.01381 0.84925-0.0402 0.5556 0.08151 1.2349-0.32979 1.1424-1.0137v-0.98556h-18.984z" stroke="#3c3d3a" stroke-linecap="square" stroke-width=".99971" fill="#505050"/>
	<path stroke-linejoin="round" d="m2.5153 11.5h18.969c0.56248 0 1.0153 0.46361 1.0153 1.0395v6.9606h-21v-6.9606c0-0.57588 0.45283-1.0395 1.0153-1.0395z" stroke="url(#linearGradient5583)" stroke-linecap="round" stroke-width=".99993" fill="url(#linearGradient5581)"/>
	<path opacity=".9" d="m2.9634 12.5h18.073c0.24043 0 0.46342 0.20622 0.46342 0.42858v5.5715h-19v-5.5715c0-0.22236 0.22299-0.42858 0.46342-0.42858z" stroke="url(#radialGradient5577)" stroke-linecap="round" stroke-width=".99991" fill="none"/>
	<rect height="5.057" width="13.057" stroke="url(#linearGradient5564)" stroke-linecap="round" y="11.472" x="5.4715" stroke-width=".94302" fill="url(#linearGradient5562)"/>
	<rect opacity=".3" height="3.0002" width="11" stroke="url(#radialGradient5554)" stroke-linecap="round" y="12.5" x="6.4999" stroke-width=".99982" fill="none"/>
	<path fill="#6efb27" d="m21 17.5c0.000242 0.27607-0.22369 0.5-0.5 0.5s-0.50024-0.22393-0.5-0.5c-0.000242-0.27607 0.22369-0.5 0.5-0.5s0.50024 0.22393 0.5 0.5z"/>
	<path fill="#e6e6e6" d="m19 20v1.75c0 0.138-0.098 0.25-0.219 0.25h-13.562c-0.1214 0-0.219-0.112-0.219-0.25v-1.75h14z"/>
	<rect height="1" width="12" y="20" x="6" fill="#323232"/>
	<path d="m16 6-4.01 4-3.99-4h2v-3h4v3h2z" fill="url(#linearGradient6666)"/>
</svg>
