<!DOCTYPE svg PUBLIC "-//W3C//DTD SVG 1.1//EN" "http://www.w3.org/Graphics/SVG/1.1/DTD/svg11.dtd">
<!--
 * Humanity icon theme
 * License GNU GPL 2 http://www.gnu.org/licenses/gpl-2.0.html
 * File cleaned with python scour -enable-id-stripping -indent=tab -strip-xml-prolog
-->
<svg xmlns="http://www.w3.org/2000/svg" width="24" height="24" version="1.1">
	<defs>
		<radialGradient id="radialGradient2499" gradientUnits="userSpaceOnUse" cy="4.625" cx="62.625" gradientTransform="matrix(1.1294 0 0 .28235 -58.729 19.694)" r="10.625">
			<stop offset="0"/>
			<stop stop-opacity="0" offset="1"/>
		</radialGradient>
		<linearGradient id="linearGradient2496" y2="3.0816" gradientUnits="userSpaceOnUse" x2="18.379" gradientTransform="matrix(.51604 0 0 .51604 -.38499 -.38499)" y1="44.98" x1="18.379">
			<stop stop-color="#791235" offset="0"/>
			<stop stop-color="#dd3b27" offset="1"/>
		</linearGradient>
		<radialGradient id="radialGradient2494" gradientUnits="userSpaceOnUse" cy="3.99" cx="23.896" gradientTransform="matrix(0 1.2316 -1.6257 0 18.487 -28.721)" r="20.397">
			<stop stop-color="#f8b17e" offset="0"/>
			<stop stop-color="#e35d4f" offset=".26238"/>
			<stop stop-color="#c6262e" offset=".66094"/>
			<stop stop-color="#690b54" offset="1"/>
		</radialGradient>
		<linearGradient id="linearGradient2491" y2="5.4676" gradientUnits="userSpaceOnUse" x2="63.397" gradientTransform="matrix(1.0863 0 0 1.0862 -55.567 15.814)" y1="-12.489" x1="63.397">
			<stop stop-color="#fff" offset="0"/>
			<stop stop-color="#fff" stop-opacity="0" offset="1"/>
		</linearGradient>
	</defs>
	<path opacity=".3" d="m24 21c0 1.6569-5.3726 3-12 3s-12-1.343-12-3c-2.5e-7 -1.657 5.3726-3 12-3s12 1.3431 12 3z" fill-rule="evenodd" fill="url(#radialGradient2499)"/>
	<path stroke-linejoin="round" d="m12 1.5018c-5.7926 0-10.498 4.7057-10.498 10.498 0 5.7926 4.7057 10.498 10.498 10.498 5.7926 0 10.498-4.7057 10.498-10.498 0-5.7926-4.7057-10.498-10.498-10.498z" stroke="url(#linearGradient2496)" stroke-linecap="round" stroke-width="1.0037" fill="url(#radialGradient2494)"/>
	<path opacity=".4" d="m21.5 12c0 5.2469-4.2536 9.5003-9.4999 9.5003-5.2468 0-9.5001-4.2535-9.5001-9.5003 0-5.2466 4.2534-9.4997 9.5001-9.4997 5.2463 0 9.4999 4.253 9.4999 9.4997z" stroke="url(#linearGradient2491)" fill="none"/>
	<path opacity=".2" d="m4 13h16v-3h-16v3z"/>
	<path fill="#fff" d="m4 14h16v-3h-16v3z"/>
</svg>
