<!DOCTYPE svg PUBLIC "-//W3C//DTD SVG 1.1//EN" "http://www.w3.org/Graphics/SVG/1.1/DTD/svg11.dtd">
<!--
 * Humanity icon theme
 * License: GNU GPL 2 http://www.gnu.org/licenses/gpl-2.0.html
 * Sprite of 13 images created with: Inkscape http://www.inkscape.org/
 * File cleaned with: python scour -enable-id-stripping -indent=tab -strip-xml-prolog -protect-ids-prefix=browser,bug,clock,dialog,document,pref
-->
<svg width="24" height="24" xmlns="http://www.w3.org/2000/svg" version="1.1">
	<style><![CDATA[
svg > g > g { display:none; }
svg > g > g:target { display:block; outline:none; }
]]></style>
	<defs>
		<linearGradient id="linearGradient3140" y2="32.485" gradientUnits="userSpaceOnUse" x2="24.104" gradientTransform="matrix(.32803 0 0 .32571 4.445 4.532)" y1="15.169" x1="24.104">
			<stop stop-color="#ecf5b6" offset="0"/>
			<stop stop-color="#9fba48" offset="1"/>
		</linearGradient>
		<linearGradient id="linearGradient4543" y2="5.4565" gradientUnits="userSpaceOnUse" x2="36.358" gradientTransform="matrix(.37071 0 0 .35485 -.85666 -.048951)" y1="8.059" x1="32.892">
			<stop stop-color="#fefefe" offset="0"/>
			<stop stop-color="#cbcbcb" offset="1"/>
		</linearGradient>
		<linearGradient id="linearGradient4565" y2="5.8215" gradientUnits="userSpaceOnUse" x2="15.18" gradientTransform="matrix(.68443 0 0 .68201 -.21315 .15692)" y1="2.1849" x1="17.289">
			<stop stop-color="#c0c0c0" offset="0"/>
			<stop stop-color="#949492" offset="1"/>
		</linearGradient>
		<linearGradient id="linearGradient4545" y2="47.013" gradientUnits="userSpaceOnUse" x2="25.132" gradientTransform="matrix(.37156 0 0 .33344 -.91752 -.0025171)" y1="6.7287" x1="25.132">
			<stop stop-color="#f4f4f4" offset="0"/>
			<stop stop-color="#dbdbdb" offset="1"/>
		</linearGradient>
		<linearGradient id="linearGradient4547" y2="2.9062" gradientUnits="userSpaceOnUse" x2="-51.786" gradientTransform="matrix(.30004 0 0 .31205 21.157 -.37413)" y1="50.786" x1="-51.786">
			<stop stop-color="#8d8f8a" offset="0"/>
			<stop stop-color="#c1c1c1" offset="1"/>
		</linearGradient>
		<radialGradient id="radialGradient3194" gradientUnits="userSpaceOnUse" cy="9.8295" cx="5.03" gradientTransform="matrix(.58933 0 0 .59919 8.2244 8.7299)" r="18.657">
			<stop stop-color="#fce94f" offset="0"/>
			<stop stop-color="#edd400" offset="1"/>
		</radialGradient>
		<radialGradient id="radialGradient5350" gradientUnits="userSpaceOnUse" cy="10.045" cx="11.902" r="29.293">
			<stop stop-color="#fffffd" offset="0"/>
			<stop stop-color="#cbcbc9" offset="1"/>
		</radialGradient>
		<linearGradient id="linearGradient5128" y2="45.348" gradientUnits="userSpaceOnUse" x2="28.771" gradientTransform="matrix(.49168 0 0 .49168 .69867 -.30183)" y1="12.918" x1="28.771">
			<stop stop-color="#929292" offset="0"/>
			<stop stop-color="#4a4a4a" offset="1"/>
		</linearGradient>
		<linearGradient id="linearGradient5130" y2="45.359" gradientUnits="userSpaceOnUse" x2="19.177" gradientTransform="matrix(.49168 0 0 .49168 .69867 -.30183)" y1="13.48" x1="19.177">
			<stop stop-color="#3f3f3f" offset="0"/>
			<stop offset="1"/>
		</linearGradient>
		<radialGradient id="radialGradient5323" gradientUnits="userSpaceOnUse" cy="4.625" cx="62.625" gradientTransform="matrix(1 0 0 .34118 0 3.0471)" r="10.625">
			<stop offset="0"/>
			<stop stop-opacity="0" offset="1"/>
		</radialGradient>
		<linearGradient id="linearGradient2491" y2="5.4676" gradientUnits="userSpaceOnUse" x2="63.397" gradientTransform="matrix(1.0863,0,0,1.0862,-55.567,15.814)" y1="-12.489" x1="63.397">
			<stop stop-color="#fff" offset="0"/>
			<stop stop-color="#fff" stop-opacity="0" offset="1"/>
		</linearGradient>
		<radialGradient id="radialGradient2494" gradientUnits="userSpaceOnUse" cy="3.99" cx="23.896" gradientTransform="matrix(0,1.2316,-1.6257,0,18.487,-28.721)" r="20.397">
			<stop stop-color="#f8b17e" offset="0"/>
			<stop stop-color="#e35d4f" offset=".26238"/>
			<stop stop-color="#c6262e" offset=".66094"/>
			<stop stop-color="#690b54" offset="1"/>
		</radialGradient>
		<linearGradient id="linearGradient2496" y2="3.0816" gradientUnits="userSpaceOnUse" x2="18.379" gradientTransform="matrix(.51604 0 0 .51604 -.38499 -.38499)" y1="44.98" x1="18.379">
			<stop stop-color="#791235" offset="0"/>
			<stop stop-color="#dd3b27" offset="1"/>
		</linearGradient>
		<radialGradient id="radialGradient2499" gradientUnits="userSpaceOnUse" cy="4.625" cx="62.625" gradientTransform="matrix(1.1294 0 0 .28235 -58.729 19.694)" r="10.625">
			<stop offset="0"/>
			<stop stop-opacity="0" offset="1"/>
		</radialGradient>
		<radialGradient id="radialGradient2456" gradientUnits="userSpaceOnUse" cy="3.99" cx="23.896" gradientTransform="matrix(0,1.2316,-1.6257,0,18.487,-28.721)" r="20.397">
			<stop stop-color="#8badea" offset="0"/>
			<stop stop-color="#6396cd" offset=".26238"/>
			<stop stop-color="#3b7caf" offset=".66094"/>
			<stop stop-color="#194c70" offset="1"/>
		</radialGradient>
		<linearGradient id="linearGradient2458" y2="3.0816" gradientUnits="userSpaceOnUse" x2="18.379" gradientTransform="matrix(.51604 0 0 .51604 -.38499 -.38499)" y1="44.98" x1="18.379">
			<stop stop-color="#1f4b6a" offset="0"/>
			<stop stop-color="#4083c2" offset="1"/>
		</linearGradient>
		<radialGradient id="radialGradient2409" gradientUnits="userSpaceOnUse" cy="3.99" cx="23.896" gradientTransform="matrix(0 .87966 -1.1611 0 12.633 -21.084)" r="20.397">
			<stop stop-color="#f8b17e" offset="0"/>
			<stop stop-color="#e35d4f" offset=".26238"/>
			<stop stop-color="#c6262e" offset=".66094"/>
			<stop stop-color="#690b54" offset="1"/>
		</radialGradient>
		<linearGradient id="linearGradient2411" y2="3.0816" gradientUnits="userSpaceOnUse" x2="18.379" gradientTransform="matrix(.36857 0 0 .36857 -.84577 -.84577)" y1="44.98" x1="18.379">
			<stop stop-color="#791235" offset="0"/>
			<stop stop-color="#dd3b27" offset="1"/>
		</linearGradient>
		<linearGradient id="linearGradient2406" y2="5.4676" gradientUnits="userSpaceOnUse" x2="63.397" gradientTransform="matrix(.74324 0 0 .74322 -38.23 10.609)" y1="-12.489" x1="63.397">
			<stop stop-color="#fff" offset="0"/>
			<stop stop-color="#fff" stop-opacity="0" offset="1"/>
		</linearGradient>
		<linearGradient id="linearGradient2431" y2="39.78" gradientUnits="userSpaceOnUse" x2="20.494" gradientTransform="matrix(.41388 0 0 .41629 -1.7222 -1.7776)" y1="7.044" x1="20.494">
			<stop stop-color="#fff" offset="0"/>
			<stop stop-color="#fff" stop-opacity="0" offset="1"/>
		</linearGradient>
		<linearGradient id="linearGradient2427" y2="31.138" gradientUnits="userSpaceOnUse" x2="-93.088" gradientTransform="matrix(.42104 -.10139 .1008 .4235 44.055 -5.0894)" y1="2.0691" x1="-86.129">
			<stop stop-color="#d7e866" offset="0"/>
			<stop stop-color="#8cab2a" offset="1"/>
		</linearGradient>
		<radialGradient id="radialGradient3058" gradientUnits="userSpaceOnUse" cy="486.65" cx="605.71" gradientTransform="matrix(-.043725 0 0 .024706 31.795 16.942)" r="117.14"/>
		<radialGradient id="radialGradient3056" gradientUnits="userSpaceOnUse" cy="486.65" cx="605.71" gradientTransform="matrix(.043725 0 0 .024706 .20519 16.942)" r="117.14"/>
		<linearGradient id="linearGradient3054" y2="609.51" gradientUnits="userSpaceOnUse" x2="302.86" gradientTransform="matrix(.043725 0 0 .024706 .19658 16.942)" y1="366.65" x1="302.86">
			<stop stop-opacity="0" offset="0"/>
			<stop offset=".5"/>
			<stop stop-opacity="0" offset="1"/>
		</linearGradient>
		<linearGradient id="linearGradient3046" y2="-3" gradientUnits="userSpaceOnUse" x2="20" gradientTransform="matrix(.51113 0 0 .48839 -.26717 .74243)" y1="47" x1="20">
			<stop stop-color="#bb5e12" offset="0"/>
			<stop stop-color="#cd8033" offset="1"/>
		</linearGradient>
		<linearGradient id="linearGradient3044" y2="47" gradientUnits="userSpaceOnUse" x2="24" gradientTransform="matrix(.51113 0 0 .48839 -.26717 .74243)" y1="-3" x1="24">
			<stop stop-color="#edd563" offset="0"/>
			<stop stop-color="#e08223" offset="1"/>
		</linearGradient>
		<linearGradient id="linearGradient3041" y2="57.567" gradientUnits="userSpaceOnUse" x2="29.291" gradientTransform="matrix(.51842 0 -.0022567 .51518 -3.0553 -7.926)" y1="19.788" x1="29.127">
			<stop stop-color="#fff" offset="0"/>
			<stop stop-color="#fff" stop-opacity="0" offset="1"/>
		</linearGradient>
		<linearGradient id="linearGradient3137" y2="47.273" gradientUnits="userSpaceOnUse" x2="24.139" gradientTransform="matrix(.2818 0 0 .2801 12.197 11.015)" y1="7.0479" x1="24.139">
			<stop stop-color="#fff" stop-opacity=".4" offset="0"/>
			<stop stop-color="#fff" stop-opacity="0" offset="1"/>
		</linearGradient>
		<linearGradient id="linearGradient3140-8" y2="32.485" gradientUnits="userSpaceOnUse" x2="24.104" gradientTransform="matrix(.46913 0 0 .4663 7.7005 6.8085)" y1="15.169" x1="24.104">
			<stop stop-color="#d7e866" offset="0"/>
			<stop stop-color="#8cab2a" offset="1"/>
		</linearGradient>
		<linearGradient id="linearGradient4543-1" y2="5.4565" gradientUnits="userSpaceOnUse" x2="36.358" gradientTransform="matrix(.54163 0 0 .5203 -.94021 .69814)" y1="8.059" x1="32.892">
			<stop stop-color="#fefefe" offset="0"/>
			<stop stop-color="#cbcbcb" offset="1"/>
		</linearGradient>
		<linearGradient id="linearGradient4565-1" y2="5.8215" gradientUnits="userSpaceOnUse" x2="15.18" gradientTransform="translate(0,1)" y1="2.1849" x1="17.289">
			<stop stop-color="#cacaca" offset="0"/>
			<stop stop-color="#949492" offset="1"/>
		</linearGradient>
		<linearGradient id="linearGradient4545-7" y2="47.013" gradientUnits="userSpaceOnUse" x2="25.132" gradientTransform="matrix(.54288 0 0 .48891 -1.0291 -.23377)" y1="6.7287" x1="25.132">
			<stop stop-color="#f4f4f4" offset="0"/>
			<stop stop-color="#dbdbdb" offset="1"/>
		</linearGradient>
		<linearGradient id="linearGradient4547-8" y2="2.9062" gradientUnits="userSpaceOnUse" x2="-51.786" gradientTransform="matrix(.43837 0 0 .45754 31.224 -.77865)" y1="50.786" x1="-51.786">
			<stop stop-color="#8d8f8a" offset="0"/>
			<stop stop-color="#cbcbcb" offset="1"/>
		</linearGradient>
		<linearGradient id="linearGradient6666" y2="3" gradientUnits="userSpaceOnUse" x2="12" y1="10" x1="12">
			<stop stop-color="#787878" offset="0"/>
			<stop stop-color="#787878" stop-opacity="0" offset="1"/>
		</linearGradient>
		<radialGradient id="radialGradient5591" gradientUnits="userSpaceOnUse" cy="41.875" cx="24" gradientTransform="matrix(.62745 0 0 .16993 -3.0588 13.634)" r="19.125">
			<stop offset="0"/>
			<stop stop-opacity="0" offset="1"/>
		</radialGradient>
		<linearGradient id="linearGradient5583" y2="20" gradientUnits="userSpaceOnUse" x2="20.279" gradientTransform="matrix(.48837 0 0 .5 .27903 1.2499)" y1="37" x1="20.562">
			<stop stop-color="#828282" offset="0"/>
			<stop stop-color="#aaa" offset="1"/>
		</linearGradient>
		<linearGradient id="linearGradient5581" y2="37" gradientUnits="userSpaceOnUse" x2="11.506" gradientTransform="matrix(.48837 0 0 .5 .27903 1.2499)" y1="20" x1="11.519">
			<stop stop-color="#fefefe" offset="0"/>
			<stop stop-color="#bebebe" offset="1"/>
		</linearGradient>
		<radialGradient id="radialGradient5577" gradientUnits="userSpaceOnUse" cy="11.918" cx="3.7591" gradientTransform="matrix(.46334 .0080418 -.0058515 .28835 .94804 9.495)" r="21">
			<stop stop-color="#fff" offset="0"/>
			<stop stop-color="#fff" stop-opacity="0" offset="1"/>
		</radialGradient>
		<linearGradient id="linearGradient5564" y2="21" gradientUnits="userSpaceOnUse" x2="15.335" gradientTransform="matrix(.48359 0 0 .45973 .39379 1.5874)" y1="33" x1="15.601">
			<stop stop-color="#2e3436" offset="0"/>
			<stop stop-color="#555753" offset="1"/>
		</linearGradient>
		<linearGradient id="linearGradient5562" y2="33" gradientUnits="userSpaceOnUse" x2="22.008" gradientTransform="matrix(.48359 0 0 .45973 .39379 1.5874)" y1="21" x1="21.919">
			<stop stop-color="#6e6e6e" offset="0"/>
			<stop stop-color="#1e1e1e" offset="1"/>
		</linearGradient>
		<radialGradient id="radialGradient5554" gradientUnits="userSpaceOnUse" cy="15.28" cx="11.537" gradientTransform="matrix(.3449 -.0026213 .00146 .19209 2.5148 9.5924)" r="13">
			<stop stop-color="#fff" offset="0"/>
			<stop stop-color="#fff" stop-opacity="0" offset="1"/>
		</radialGradient>
		<linearGradient id="linearGradient2834" y2="23.891" gradientUnits="userSpaceOnUse" x2="1.31" gradientTransform="matrix(0 -.33674 -.33543 0 20.014 15.582)" y1="23.891" x1="28.671">
			<stop stop-color="#d7e866" offset="0"/>
			<stop stop-color="#8cab2a" offset="1"/>
		</linearGradient>
		<linearGradient id="linearGradient2831" y2="33.332" gradientUnits="userSpaceOnUse" x2="57.411" gradientTransform="matrix(0 .39055 -.38724 0 22.223 -1.7244)" y1="33.332" x1="8.5273">
			<stop stop-color="#fff" offset="0"/>
			<stop stop-color="#fff" stop-opacity="0" offset="1"/>
		</linearGradient>
		<radialGradient id="radialGradient8498" fx="113.67" fy="98" gradientUnits="userSpaceOnUse" cy="97.588" cx="113.07" gradientTransform="matrix(2.4957,0,0,2.4957,-223.98,-53.226)" r="2.5631"/>
		<radialGradient id="radialGradient8475" gradientUnits="userSpaceOnUse" cy="143.83" cx="127.32" gradientTransform="matrix(.10006 -.023376 .0082168 .059717 -5.2741 -.91135)" r="78.728"/>
		<radialGradient id="radialGradient8464" gradientUnits="userSpaceOnUse" cy="191.85" cx="142.62" gradientTransform="matrix(.092476 0 0 -.087162 -1.5556 24.366)" r="78.728">
			<stop stop-color="#fff" offset="0"/>
			<stop stop-color="#e7e7e7" offset=".47026"/>
			<stop stop-color="#8c8c8c" offset=".67184"/>
			<stop stop-color="#ddd" offset=".83543"/>
			<stop stop-color="#a8a8a8" offset="1"/>
		</radialGradient>
		<radialGradient id="radialGradient8471" gradientUnits="userSpaceOnUse" cy="206.43" cx="141.75" gradientTransform="matrix(.18615 -.0031402 .0013777 .18068 -15.013 -20.636)" r="78.728"/>
		<radialGradient id="radialGradient3248" gradientUnits="userSpaceOnUse" cy="42" cx="24" gradientTransform="matrix(.52381 0 1.4569e-8 .21429 -.57143 11.5)" r="21">
			<stop stop-color="#fff" offset="0"/>
			<stop stop-color="#fff" stop-opacity="0" offset="1"/>
		</radialGradient>
		<radialGradient id="radialGradient4072" gradientUnits="userSpaceOnUse" cy="4.2333" cx="7.2203" gradientTransform="matrix(1.5194 .0037157 -.0030247 1.2368 -3.7373 .067833)" r="12">
			<stop stop-color="#e6e6e6" offset="0"/>
			<stop stop-color="#c8c8c8" offset="1"/>
		</radialGradient>
		<linearGradient id="linearGradient2869" y2="8.3495" gradientUnits="userSpaceOnUse" x2="4.459" gradientTransform="matrix(.98925 0 0 1.4696 .12903 -10.339)" y1="13.499" x1="9.599">
			<stop stop-color="#969696" offset="0"/>
			<stop stop-color="#b4b4b4" offset="1"/>
		</linearGradient>
		<linearGradient id="linearGradient8487" y2="33.759" gradientUnits="userSpaceOnUse" x2="12.222" gradientTransform="matrix(.73759 0 0 .53933 -2.796 2.187)" y1="37.206" x1="12.277">
			<stop stop-color="#eee" offset="0"/>
			<stop stop-color="#eee" stop-opacity="0" offset="1"/>
		</linearGradient>
		<linearGradient id="linearGradient8490" y2="35.281" gradientUnits="userSpaceOnUse" x2="24.688" gradientTransform="matrix(.73759 0 0 .53933 -2.2092 1.4719)" y1="35.281" x1="7.0625">
			<stop offset="0"/>
			<stop stop-color="#bbb" stop-opacity="0" offset="1"/>
		</linearGradient>
		<linearGradient id="linearGradient2872" y2="104.28" gradientUnits="userSpaceOnUse" x2="53.991" gradientTransform="matrix(.19046 0 0 .24853 .090799 -3.4847)" y1="87.896" x1="53.991">
			<stop stop-color="#7a7a7a" offset="0"/>
			<stop stop-color="#474747" offset="1"/>
		</linearGradient>
		<radialGradient id="radialGradient2877" gradientUnits="userSpaceOnUse" cy="486.65" cx="605.71" gradientTransform="matrix(-.022183 0 0 .01086 16.259 17.381)" r="117.14"/>
		<radialGradient id="radialGradient2880" gradientUnits="userSpaceOnUse" cy="486.65" cx="605.71" gradientTransform="matrix(.022183 0 0 .01086 7.7407 17.381)" r="117.14"/>
		<linearGradient id="linearGradient2883" y2="609.51" gradientUnits="userSpaceOnUse" x2="302.86" gradientTransform="matrix(.037768 0 0 .01086 -1.6503 17.381)" y1="366.65" x1="302.86">
			<stop stop-opacity="0" offset="0"/>
			<stop offset=".5"/>
			<stop stop-opacity="0" offset="1"/>
		</linearGradient>
		<linearGradient id="linearGradient3280" y2="44.14" gradientUnits="userSpaceOnUse" x2="-9.7747" gradientTransform="matrix(.25022 -.24951 .36299 .36161 1.7511 -2.1529)" y1="44.229" x1="-6.3078">
			<stop offset="0"/>
			<stop stop-opacity="0" offset="1"/>
		</linearGradient>
		<linearGradient id="linearGradient3278" y2="27.273" gradientUnits="userSpaceOnUse" x2="36.001" gradientTransform="matrix(.50011 0 0 .49926 -1.2551 -.71661)" y1="34.023" x1="29.278">
			<stop stop-color="#791235" offset="0"/>
			<stop stop-color="#dd3b27" offset="1"/>
		</linearGradient>
		<linearGradient id="linearGradient3276" y2="35.079" gradientUnits="userSpaceOnUse" x2="90.221" gradientTransform="matrix(.41146 -.41048 .35988 .35903 -37.314 39.996)" y1="35.152" x1="97.442">
			<stop stop-color="#f8b17e" offset="0"/>
			<stop stop-color="#e35d4f" offset=".26238"/>
			<stop stop-color="#c6262e" offset=".66347"/>
			<stop stop-color="#690b54" offset="1"/>
		</linearGradient>
		<linearGradient id="linearGradient3274" y2="88.006" gradientUnits="userSpaceOnUse" x2="317.16" gradientTransform="matrix(.68166 0 0 .67984 -203.21 -34.645)" y1="75.575" x1="326.6">
			<stop stop-color="#fff" offset="0"/>
			<stop stop-color="#fff" stop-opacity="0" offset="1"/>
		</linearGradient>
		<linearGradient id="linearGradient3272" y2="60.768" gradientUnits="userSpaceOnUse" x2="308.65" gradientTransform="matrix(.65225 0 0 .64594 -194.17 -32.629)" y1="58.443" x1="302.29">
			<stop stop-color="#babdb6" offset="0"/>
			<stop stop-color="#fff" offset="1"/>
		</linearGradient>
		<radialGradient id="radialGradient2919" gradientUnits="userSpaceOnUse" cy="73.616" cx="6.7027" gradientTransform="matrix(1.579 0 0 .48488 1.4162 -15.199)" r="7.2284">
			<stop offset="0"/>
			<stop stop-opacity="0" offset="1"/>
		</radialGradient>
		<linearGradient id="linearGradient2914" y2="122.9" gradientUnits="userSpaceOnUse" x2="64" gradientTransform="matrix(.17214 0 0 .17186 .9828 1.19)" y1="3.1001" x1="64">
			<stop stop-color="#f2f2f2" offset="0"/>
			<stop stop-color="#d8d8d8" offset="1"/>
		</linearGradient>
		<linearGradient id="linearGradient2911" y2="20.895" gradientUnits="userSpaceOnUse" x2="84.639" gradientTransform="matrix(.15715 0 0 .15689 1.9422 2.2529)" y1="105.1" x1="86.133">
			<stop stop-color="#fff" offset="0"/>
			<stop stop-color="#959595" offset="1"/>
		</linearGradient>
		<linearGradient id="linearGradient2909" y2="104.06" gradientUnits="userSpaceOnUse" x2="64" gradientTransform="matrix(.15715 0 0 .15689 1.9422 2.2529)" y1="21.941" x1="64"/>
		<linearGradient id="linearGradient2906" y2="102.05" gradientUnits="userSpaceOnUse" x2="49.374" gradientTransform="matrix(.18137 0 0 .18107 .39218 .59228)" y1="22.275" x1="49.273"/>
		<linearGradient id="linearGradient2904" y2="103.07" gradientUnits="userSpaceOnUse" x2="64" gradientTransform="matrix(.18137 0 0 .18107 .39218 .59228)" y1="21.523" x1="64"/>
	</defs>
	<g transform="translate(757.71 -110.11)">
		<g id="browser-upload" stroke-linejoin="round" transform="translate(-754.21 114.11)">
			<path stroke="url(#linearGradient4547)" stroke-width=".99525" d="m1.4976 0.49763h7.9177c0.52277 0.16184 4.3537 2.6136 5.0871 3.8903v11.114h-13.005v-15.005z" fill="url(#linearGradient4545)"/>
			<path fill-rule="evenodd" stroke="url(#linearGradient4565)" stroke-width=".99525" d="m9.5 0.49792v4.0021h5.0021c0-1.9018-3.0057-4.0021-5.0021-4.0021z" fill="url(#linearGradient4543)"/>
			<path fill-rule="evenodd" stroke="#699536" stroke-width="1.0151" d="m10.5 10.5v-1.9925h3v1.9925h1.9925v3h-1.992v1.9925h-3v-1.992h-1.9925v-3h1.9925z" fill="url(#linearGradient3140)"/>
		</g>
		<g id="bug" transform="translate(-754.76 113.13) scale(1.25)">
			<g transform="matrix(.75086 0 0 .73262 -.40124 -.3214)">
				<path stroke="#c4a000" stroke-width="1.3276" stroke-linecap="round" d="m19.871 19.759-6.637-2.363-5.4157 4.174-1.2638-5.463-5.2516 1.369 3.8991-5.432-3.5958-5.4516l5.011 0.0427 1.9532-5.5268 4.4486 3.054 6.678-2.8053-2.641 6.724 4.132 3.44-4.113 1.997 2.796 6.241z" fill="url(#radialGradient3194)"/>
				<path d="m9.857 5.8986h2.664l-0.746 5.4594h-1.29l-0.628-5.4594z"/>
				<path d="m12.969 13.547a1.422 1.422 0 1 1 -2.844 0 1.422 1.422 0 1 1 2.844 0z" transform="matrix(.93665 0 0 .95998 .37338 1.0837)"/>
			</g>
			<path d="m9.2188 3.0938-1.375 3.9687c-0.1879 0.51-0.6753 0.8475-1.2188 0.8437l-2.625-0.0312 2.25 3.437c0.3061 0.442 0.3061 1.028 0 1.469l-1.8125 2.531 1.8125-0.468c0.3359-0.082 0.6905-0.025 0.9842 0.157 0.2938 0.182 0.5022 0.474 0.5783 0.811l0.8125 3.5 3.813-2.937c0.348-0.265 0.807-0.336 1.218-0.187l3.782 1.343-1.563-3.469c-0.284-0.638-0.006-1.387 0.625-1.687l2.344-1.125-2.594-2.1562c-0.43-0.3567-0.581-0.9497-0.375-1.4688l1.531-3.9062-3.875 1.625c-0.401 0.1663-0.859 0.1193-1.219-0.125l-3.0932-2.125z" transform="matrix(.75086 0 0 .73262 -.40124 -.3214)" stroke="#fff" stroke-linecap="round" stroke-width="1.3276" fill="none"/>
		</g>
		<g id="clock" transform="translate(-757.71 109.61)">
			<path opacity=".56044" d="m73.25 4.625a10.625 3.625 0 1 1 -21.25 0 10.625 3.625 0 1 1 21.25 0z" fill-rule="evenodd" transform="matrix(1.1294,0,0,1.2907,-58.729,13.352)" fill="url(#radialGradient5323)"/>
			<path stroke-linejoin="round" d="m12.492 1.5c-5.5191 0-9.9922 4.4731-9.9922 9.9922s4.4731 10.008 9.9922 10.008 10.008-4.4888 10.008-10.008c0-5.5189-4.489-9.992-10.008-9.992z" stroke="url(#linearGradient5130)" stroke-linecap="round" stroke-width=".99995" fill="url(#linearGradient5128)"/>
			<path d="m31.161 16.911a14.911 14.911 0 1 1 -29.821 0 14.911 14.911 0 1 1 29.821 0z" fill-rule="evenodd" transform="matrix(.57006 0 0 .57006 3.2365 1.8599)" fill="url(#radialGradient5350)"/>
			<path fill-rule="evenodd" stroke="#727272" stroke-linecap="round" d="m12.5 6.5v-1.569" fill="#1f1f1f"/>
			<path stroke="#000" stroke-width=".5" stroke-linecap="round" d="m12.195 11.714 5.401-5.4017" fill="none"/>
			<path stroke="#000" stroke-width=".5" stroke-linecap="round" d="m13.072 11.754-3.6082-3.608" fill="none"/>
			<path d="m12.314 11.435 6.151-1.6484" fill-rule="evenodd" stroke="#f00" stroke-linecap="round" stroke-width=".5" fill="#f00"/>
			<path fill-rule="evenodd" stroke="#121212" stroke-linecap="round" d="m12.5 18.285v-1.569" fill="#121212"/>
			<path fill-rule="evenodd" stroke="#1f1f1f" stroke-linecap="round" d="m17.5 11.5h1.569" fill="#1f1f1f"/>
			<path fill-rule="evenodd" stroke="#5f5f5f" stroke-linecap="round" d="m5.7331 11.5h1.5337" fill="#1f1f1f"/>
		</g>
		<g id="dialog-error" transform="translate(-757.71 109.61)">
			<path opacity=".3" fill-rule="evenodd" d="m24 21c0 1.6569-5.3726 3-12 3s-12-1.343-12-3c-2.5e-7 -1.657 5.3726-3 12-3s12 1.3431 12 3z" fill="url(#radialGradient2499)"/>
			<path stroke-linejoin="round" d="m12 1.5018c-5.7926 0-10.498 4.7057-10.498 10.498 0 5.7926 4.7057 10.498 10.498 10.498 5.7926 0 10.498-4.7057 10.498-10.498 0-5.7928-4.706-10.498-10.498-10.498z" stroke="url(#linearGradient2496)" stroke-linecap="round" stroke-width="1.0037" fill="url(#radialGradient2494)"/>
			<path opacity=".4" stroke="url(#linearGradient2491)" d="m21.5 12c0 5.2469-4.2536 9.5003-9.4999 9.5003-5.2467 0-9.5-4.253-9.5-9.5 0-5.2466 4.2534-9.4997 9.5-9.4997 5.246 0 9.5 4.253 9.5 9.4997z" fill="none"/>
			<path opacity=".2" d="m4 13h16v-3h-16v3z"/>
			<path d="m4 14h16v-3h-16v3z" fill="#fff"/>
		</g>
		<g id="dialog-information" transform="translate(-757.71 109.61)">
			<path opacity=".3" fill-rule="evenodd" d="m24 21c0 1.6569-5.3726 3-12 3s-12-1.343-12-3c-2.5e-7 -1.657 5.3726-3 12-3s12 1.3431 12 3z" fill="url(#radialGradient2499)"/>
			<path stroke-linejoin="round" d="m12 1.5018c-5.7926 0-10.498 4.7057-10.498 10.498 0 5.7926 4.7057 10.498 10.498 10.498 5.7926 0 10.498-4.7057 10.498-10.498 0-5.7928-4.706-10.498-10.498-10.498z" stroke="url(#linearGradient2458)" stroke-linecap="round" stroke-width="1.0037" fill="url(#radialGradient2456)"/>
			<path opacity=".4" stroke="url(#linearGradient2491)" d="m21.5 12c0 5.2469-4.2536 9.5003-9.4999 9.5003-5.2467 0-9.5-4.253-9.5-9.5 0-5.2466 4.2534-9.4997 9.5-9.4997 5.246 0 9.5 4.253 9.5 9.4997z" fill="none"/>
			<path opacity=".2" d="m9 10.851c0.13386 0.36388 0.28452 0.65884 0.60545 0.25553 0.39788-0.23673 1.731-1.2744 1.5976-0.25798-0.42688 1.8808-0.94648 3.7418-1.3438 5.6285-0.41543 1.033 0.52793 1.9674 1.5129 1.2956 1.0469-0.43158 1.9478-1.1346 2.8681-1.7794-0.12558-0.30796-0.20927-0.75035-0.55625-0.34761-0.4556 0.20679-1.4507 1.1817-1.6355 0.37762 0.3827-2.0366 1.0918-3.9978 1.545-6.0181 0.417-0.9285-0.265-2.1023-1.284-1.3339-1.222 0.5321-2.243 1.4009-3.31 2.1799zm4.534-6.8494c-1.247-0.0661-1.898 1.9431-0.714 2.4929 0.961 0.3941 2.007-0.5915 1.773-1.5763-0.073-0.5128-0.534-0.9339-1.059-0.9166h-0.000001z"/>
			<path d="m9 11.851c0.13386 0.36388 0.28452 0.65884 0.60545 0.25553 0.39788-0.23673 1.731-1.2744 1.5976-0.25798-0.42688 1.8808-0.94648 3.7418-1.3438 5.6285-0.41543 1.033 0.52793 1.9674 1.5129 1.2956 1.0469-0.43158 1.9478-1.1346 2.8681-1.7794-0.12558-0.30796-0.20927-0.75035-0.55625-0.34761-0.4556 0.20679-1.4507 1.1817-1.6355 0.37762 0.3827-2.0366 1.0918-3.9978 1.545-6.0181 0.417-0.929-0.265-2.1023-1.284-1.3339-1.222 0.5319-2.243 1.4009-3.31 2.1799zm4.5338-6.8497c-1.2464-0.066145-1.8981 1.9431-0.71361 2.4929 0.96093 0.39409 2.0072-0.59147 1.7725-1.5763-0.073-0.5125-0.534-0.9336-1.059-0.9163h-0.000001z" fill="#fff"/>
		</g>
		<g id="dialog-no" transform="translate(-753.71 114.11)">
			<path stroke-linejoin="round" d="m8 0.50183c-4.1372 0-7.4982 3.3609-7.4982 7.4982 0 4.1372 3.3609 7.4982 7.4982 7.4982 4.1372 0 7.4982-3.3609 7.4982-7.4982 0-4.1372-3.3609-7.4982-7.4982-7.4982z" stroke="url(#linearGradient2411)" stroke-linecap="round" stroke-width="1.0037" fill="url(#radialGradient2409)"/>
			<path opacity=".4" stroke="url(#linearGradient2406)" d="m14.5 7.9998c0 3.5902-2.91 6.5002-6.4999 6.5002s-6.5001-2.91-6.5001-6.5002c0-3.5898 2.9102-6.4998 6.5001-6.4998s6.4999 2.91 6.4999 6.4998z" fill="none"/>
			<path opacity=".2" d="m5.2625 3-1.2625 1.2625 2.6047 2.5913c0.080018 0.081027 0.080018 0.21133 0 0.29236l-2.6047 2.5913 1.2625 1.2625 2.5913-2.5914c0.081026-0.080018 0.21133-0.080018 0.29236 0l2.5918 2.5914 1.262-1.2625-2.5914-2.5913c-0.0801-0.0811-0.0801-0.2114 0-0.2924l2.5914-2.5913-1.262-1.2625-2.5918 2.5914c-0.081027 0.080018-0.21133 0.080018-0.29236 0l-2.5913-2.5914z" fill-rule="evenodd"/>
			<path fill-rule="evenodd" d="m5.2625 4-1.2625 1.2625 2.6047 2.5913c0.080018 0.081027 0.080018 0.21133 0 0.29236l-2.6047 2.5918 1.2625 1.262 2.5913-2.5914c0.081026-0.080018 0.21133-0.080018 0.29236 0l2.5918 2.5914 1.262-1.262-2.5914-2.5918c-0.0801-0.0811-0.0801-0.2114 0-0.2924l2.5914-2.5913-1.262-1.2625-2.5918 2.5914c-0.081027 0.080018-0.21133 0.080018-0.29236 0l-2.5913-2.5914z" fill="#fff"/>
		</g>
		<g id="dialog-ok" stroke-width="1.0028" stroke-linecap="round" transform="translate(-753.71 114.11)">
			<path stroke-linejoin="round" stroke="#699536" d="m12.262 0.50446c-0.232-0.02365-0.462 0.09048-0.581 0.30958l-5.0718 9.333-3.2606-2.6075c-0.2904-0.1597-0.6528-0.057-0.8115 0.2352l-1.4622 1.8882c-0.1587 0.29213-0.051938 0.6565 0.2385 0.81613 0 0 5.9534 4.9457 5.9608 4.9493 0.068071 0.03741 0.13926 0.05624 0.21162 0.06544 0.23638 0.03004 0.47828-0.08166 0.59979-0.30532l6.8394-12.586c0.1587-0.29213 0.05194-0.6565-0.2385-0.81613l-2.194-1.2118c-0.073-0.03986-0.153-0.06176-0.23-0.06964z" fill="url(#linearGradient2427)"/>
			<path opacity=".4" stroke="url(#linearGradient2431)" d="m12.312 1.6562-5.312 9.8128a0.15035 0.15035 0 0 1 0 0.031 0.15035 0.15035 0 0 1 -0.03125 0.03125 0.15035 0.15035 0 0 1 -0.03125 0 0.15035 0.15035 0 0 1 -0.03125 0.03125 0.15035 0.15035 0 0 1 -0.03125 0 0.15035 0.15035 0 0 1 -0.03125 0 0.15035 0.15035 0 0 1 -0.03125 -0.03125 0.15035 0.15035 0 0 1 -0.03125 0l-3.6562-2.906c-0.32388 0.40246-0.60092 0.77792-0.96875 1.25 0.1123 0.093077 1.303 1.09 2.625 2.1875 0.6912 0.57379 1.3815 1.1568 1.9062 1.5938 0.26235 0.21848 0.4994 0.39983 0.65625 0.53125 0.050142 0.04201 0.088455 0.06296 0.125 0.09375 0.052555-0.09355 0.10901-0.18055 0.25-0.4375 0.19196-0.34986 0.43971-0.83698 0.75-1.4062 0.62059-1.1385 1.4445-2.6103 2.25-4.0938 0.80552-1.4834 1.5812-2.9751 2.1875-4.0938 0.30316-0.55933 0.56868-1.0087 0.75-1.3438 0.14198-0.26236 0.21072-0.36449 0.25-0.4375-0.055-0.0314-0.1-0.0615-0.218-0.125-0.172-0.0919-0.379-0.1999-0.594-0.3126-0.215-0.1126-0.432-0.2271-0.594-0.3124-0.067-0.0354-0.141-0.0375-0.188-0.0626z" fill="none"/>
		</g>
		<g id="dialog-question" transform="translate(-757.71 109.61)">
			<path opacity=".3" fill-rule="evenodd" d="m24 21c0 1.6569-5.3726 3-12 3s-12-1.343-12-3c-2.5e-7 -1.657 5.3726-3 12-3s12 1.3431 12 3z" fill="url(#radialGradient2499)"/>
			<path stroke-linejoin="round" d="m12 1.5018c-5.7926 0-10.498 4.7057-10.498 10.498 0 5.7926 4.7057 10.498 10.498 10.498 5.7926 0 10.498-4.7057 10.498-10.498 0-5.7928-4.706-10.498-10.498-10.498z" stroke="url(#linearGradient2458)" stroke-linecap="round" stroke-width="1.0037" fill="url(#radialGradient2456)"/>
			<path opacity=".4" stroke="url(#linearGradient2491)" d="m21.5 12c0 5.2469-4.2536 9.5003-9.4999 9.5003-5.2467 0-9.5-4.253-9.5-9.5 0-5.2466 4.2534-9.4997 9.5-9.4997 5.246 0 9.5 4.253 9.5 9.4997z" fill="none"/>
			<path opacity=".2" d="m12.455 14.082c-0.033-1.179 0.231-2.324 1.345-3.135 1.177-0.917 2.311-2.065 2.191-3.4177-0.026-1.3047-1.546-2.327-3.183-2.474-1.843-0.2551-4.0715 0.3759-4.6888 1.8145-0.3131 0.6997-0.0227 1.955 1.0279 1.955 0.61453 0 0.89678-0.39697 0.94315-0.7601 0.035-0.2748-0.077-0.5201-0.1441-0.7471-0.0759-0.2586 0.2481-0.7597 0.6011-0.964 0.295-0.1706 0.603-0.2278 0.649-0.2387 1.0591-0.25452 2.1148 0.30768 2.5553 0.99196 0.44048 0.68427-0.04435 1.7222-0.74143 2.7315-0.69707 1.0093-1.4452 2.1557-1.4422 3.3734 0 0.46356-0.0413 0.62104-0.01196 0.80859 0.02345 0.14984 0.51961 0.13174 0.89958 0.06145zm-0.48333 1.5874c-1.0126-0.05497-1.7135 1.093-1.1052 1.8244 0.54328 0.80755 2.0665 0.6082 2.3276-0.30627 0.27143-0.71112-0.38177-1.53-1.2224-1.5181v0.000001z"/>
			<path d="m12.455 15.082c-0.033-1.179 0.231-2.324 1.345-3.135 1.177-0.917 2.311-2.065 2.191-3.4177-0.026-1.3047-1.546-2.327-3.183-2.474-1.843-0.2551-4.0715 0.3759-4.6888 1.8145-0.3131 0.6997-0.0227 1.955 1.0279 1.955 0.61453 0 0.89678-0.39697 0.94315-0.7601 0.03508-0.27476-0.07772-0.52011-0.14433-0.74706-0.075905-0.2586 0.24813-0.75978 0.60104-0.96398 0.2949-0.17064 0.60344-0.22785 0.64892-0.23878 1.0591-0.25452 2.1148 0.30768 2.5553 0.99196 0.44048 0.68427-0.04435 1.7222-0.74143 2.7315-0.69707 1.0093-1.4452 2.1557-1.4422 3.3734 0 0.46356-0.0413 0.62104-0.01196 0.80859 0.02345 0.14984 0.51961 0.13174 0.89958 0.06145zm-0.48333 1.5874c-1.0126-0.05497-1.7135 1.093-1.1052 1.8244 0.54328 0.80755 2.0665 0.6082 2.3276-0.30627 0.27143-0.71112-0.38177-1.53-1.2224-1.5181z" fill="#fff"/>
		</g>
		<g id="dialog-warning" transform="translate(-757.71 109.61)">
			<g transform="matrix(.75 0 0 .5 0 8)">
				<rect opacity=".5" height="6" width="21.113" y="26" x="5.4436" fill="url(#linearGradient3054)"/>
				<path opacity=".5" d="m26.556 26v5.9997c2.2517 0.01129 5.4436-1.3442 5.4436-3.0002s-2.5128-2.9994-5.4436-2.9994z" fill="url(#radialGradient3056)"/>
				<path opacity=".5" d="m5.4436 26v5.9997c-2.2518 0.011-5.4436-1.344-5.4436-3s2.5128-3 5.4436-3z" fill="url(#radialGradient3058)"/>
			</g>
			<path stroke="url(#linearGradient3046)" d="m23.336 20.278-9.982-18c-0.287-0.5002-0.806-0.778-1.384-0.778-0.57823 0-1.1001 0.33327-1.3914 0.83328l-9.9091 18c-0.23322 0.44436-0.2359 1.0555 0.051232 1.5 0.28717 0.44436 0.74879 0.66675 1.327 0.66675h19.891c0.57822 0 1.0998-0.27783 1.333-0.72219 0.29105-0.44436 0.29348-1 0.0643-1.5z" fill="url(#linearGradient3044)"/>
			<path opacity=".4" stroke="url(#linearGradient3041)" d="m22.032 19.512-8.972-16.096c-0.382-0.6934-0.519-0.9158-1.1-0.9158-0.49947 0-0.76081 0.32399-1.1217 0.97849l-8.8727 16.082c-0.51523 0.90295-0.57043 1.1383-0.32244 1.5357 0.24799 0.39743 0.56641 0.37578 1.7429 0.4017h17.439c1.0953 0.01295 1.342-0.06692 1.5436-0.46434 0.25147-0.39743 0.14451-0.71274-0.33614-1.5228z" fill="none"/>
			<path opacity=".2" d="m10.599 7.2867c0.33194 2.8104 0.71217 5.6015 0.99474 8.423h0.90177c0.23438-2.7095 0.61243-5.4026 0.88514-8.1087 0.139-0.6408-0.241-1.4016-1.021-1.5573-0.772-0.1955-1.634 0.2886-1.736 0.9801-0.01701 0.0868-0.0246 0.1749-0.0246 0.26292h-0.000002zm-0.09838 11.426c-0.0351 0.83656 1.0269 1.4923 1.9336 1.2271 0.87824-0.19428 1.3408-1.151 0.89072-1.8311-0.40292-0.70303-1.5844-0.93466-2.2641-0.3966-0.34357 0.24465-0.57128 0.60988-0.56022 1.0006v-0.000001z"/>
			<path d="m10.599 8.2867c0.33194 2.8104 0.71217 5.6016 0.99474 8.423h0.90177c0.23438-2.7095 0.61243-5.4026 0.88514-8.1087 0.139-0.6408-0.241-1.4016-1.021-1.5573-0.772-0.1955-1.634 0.2886-1.736 0.9801-0.01701 0.0868-0.0246 0.1749-0.0246 0.26292h-0.000002zm-0.09838 11.426c-0.0351 0.83656 1.0269 1.4923 1.9336 1.2271 0.87824-0.19428 1.3408-1.151 0.89072-1.8311-0.40292-0.70303-1.5844-0.93466-2.2641-0.3966-0.34357 0.24465-0.57128 0.60988-0.56022 1.0006v-0.000001z" fill="#fff"/>
		</g>
		<g id="document-new" transform="translate(-759.21 110.11)">
			<path stroke-linejoin="round" stroke="url(#linearGradient4547-8)" stroke-width=".99914" d="m3.5 1.5h12.062c0.7638 0.23731 4.8672 2.9401 5.9387 4.812v16.188h-18v-21z" fill="url(#linearGradient4545-7)"/>
			<path stroke-linejoin="round" stroke="url(#linearGradient4565-1)" fill-rule="evenodd" d="m15.5 1.5v5h6c0-0.83659-4.8205-4.9857-6-5z" fill="url(#linearGradient4543-1)"/>
			<path stroke-linejoin="round" stroke="#699536" fill-rule="evenodd" d="m16.5 15.5v-3h4v3h3v4h-3v3h-4v-3h-2.9895v-4h2.99z" fill="url(#linearGradient3140-8)"/>
			<path stroke="url(#linearGradient3137)" d="m17.5 16.5v-3h2v3h3v2h-3v3h-2v-3h-3v-2h3z" fill="none"/>
		</g>
		<g id="document-print" transform="translate(-757.71 109.61)">
			<path opacity=".7" d="m24 20.75c0 1.795-5.373 3.25-12 3.25-6.6274 0-12-1.455-12-3.25 5e-8 -1.795 5.3726-3.25 12-3.25s12 1.4551 12 3.25z" fill="url(#radialGradient5591)"/>
			<rect stroke-linejoin="round" rx=".29157" ry=".36185" height="11" width="15" stroke="#3c3d3a" stroke-linecap="round" y="5.5" x="4.5" stroke-width="1.0001" fill="#505050"/>
			<g transform="translate(4,1)">
				<path stroke-linejoin="round" stroke="#b5b6b2" stroke-width=".99525" d="m1.4976 0.49763 13.005 0.002374v15.002h-13.005v-15.005z" fill="#f4f4f4"/>
			</g>
			<path stroke="#3c3d3a" stroke-width=".99971" stroke-linecap="square" d="m2.5074 19.5c0.037084 0.51806-0.096022 1.0755 0.11744 1.5555 0.40044 0.60919 1.2842 0.40888 1.8752 0.44374 0.010664 0.35961 0.043357 0.91477 0.5 0.99127 4.8239 0.01951 9.1756 0.0028 14 0.0084 0.49786 0.01588 0.5161-0.58079 0.5-0.95942 0.1626-0.09327 0.62471-0.01381 0.84925-0.0402 0.5556 0.08151 1.2349-0.32979 1.1424-1.0137v-0.98556h-18.984z" fill="#505050"/>
			<path stroke-linejoin="round" d="m2.5153 11.5h18.969c0.56248 0 1.0153 0.46361 1.0153 1.0395v6.9606h-21v-6.961c0.0006-0.576 0.4534-1.04 1.0159-1.04z" stroke="url(#linearGradient5583)" stroke-linecap="round" stroke-width=".99993" fill="url(#linearGradient5581)"/>
			<path opacity=".9" d="m2.9634 12.5h18.073c0.24043 0 0.46342 0.20622 0.46342 0.42858v5.5715h-19v-5.5715c0.0008-0.222 0.2238-0.428 0.4642-0.428z" stroke="url(#radialGradient5577)" stroke-linecap="round" stroke-width=".99991" fill="none"/>
			<rect height="5.057" width="13.057" stroke="url(#linearGradient5564)" stroke-linecap="round" y="11.472" x="5.4715" stroke-width=".94302" fill="url(#linearGradient5562)"/>
			<rect opacity=".3" height="3.0002" width="11" stroke="url(#radialGradient5554)" stroke-linecap="round" y="12.5" x="6.4999" stroke-width=".99982" fill="none"/>
			<path d="m21 17.5c0.000242 0.27607-0.22369 0.5-0.5 0.5s-0.50024-0.22393-0.5-0.5c-0.000242-0.27607 0.22369-0.5 0.5-0.5s0.50024 0.22393 0.5 0.5z" fill="#6efb27"/>
			<path d="m19 20v1.75c0 0.138-0.098 0.25-0.219 0.25h-13.562c-0.1214 0-0.219-0.112-0.219-0.25v-1.75h14z" fill="#e6e6e6"/>
			<rect y="20" width="12" height="1" x="6" fill="#323232"/>
			<path d="m16 6-4.01 4-3.99-4h2v-3h4v3h2z" fill="url(#linearGradient6666)"/>
		</g>
		<g id="document-save" transform="translate(-757.71 110.11)">
			<rect opacity=".40206" height="2.6374" width="18.236" y="21.363" x="2.8818" fill="url(#linearGradient2883)"/>
			<path opacity=".40206" d="m21.109 21.363v2.6373c1.1423 0.005 2.7616-0.59088 2.7616-1.3188 0-0.72793-1.2748-1.3185-2.7616-1.3185z" fill="url(#radialGradient2880)"/>
			<path opacity=".40206" d="m2.8907 21.363v2.6373c-1.1424 0.005-2.7616-0.59088-2.7616-1.3188 0-0.72793 1.2748-1.3185 2.7616-1.3185z" fill="url(#radialGradient2877)"/>
			<path stroke-linejoin="round" stroke="#353537" d="m23.5 18.5c-0.46639 3.38-0.35138 3.9815-1.1959 3.9815-0.33079 0.04823-13.337 0-20.654 0-0.91714 0-0.68541 0.06576-1.1498-3.9786l23-0.0029v-0.000049z" fill="url(#linearGradient2872)"/>
			<path fill-rule="evenodd" d="m2.7 19h13.3v3h-13l-0.3-3z" fill="url(#linearGradient8490)"/>
			<path opacity=".81143" fill-rule="evenodd" d="m3 22l-0.2-2.164c1.3539 1.715 6.3194 2.164 9.743 2.164h-9.543z" fill="url(#linearGradient8487)"/>
			<path stroke-linejoin="round" stroke="url(#linearGradient2869)" stroke-linecap="round" d="m2.5 2-1.9774 16.483c-0.014949 0-0.022616 0.0044-0.022616 0.01667h23c0-0.01232-0.0077-0.01667-0.02261-0.01667l-1.977-16.483c-0.099-0.8274-1.167-1.5-2-1.5h-15c-0.8333 0-1.9007 0.6726-2 1.5z" fill="url(#radialGradient4072)"/>
			<path opacity=".6" stroke-linejoin="round" d="m1.4991 18.5h21.002" stroke="#fff" stroke-linecap="round" fill="none"/>
			<rect opacity=".2" height="3" width="22" y="19" x="1" fill="url(#radialGradient3248)"/>
			<path d="m14.531 1.8125c-0.27749 0-0.52468 0.080669-0.71875 0.21875s-0.33544 0.35016-0.34375 0.59375c-0.02564 0.74969-0.40816 1.2893-1.125 1.7812-0.71102 0.48797-1.7547 0.89986-3 1.2812-0.010197 0.00312-0.021024-0.00312-0.03125 0-0.471 0.098904-1.245 0.37608-2 0.65625-0.7654 0.2842-1.4645 0.5582-1.781 0.7813-1.5978 1.0054-2.5829 2.3417-2.7187 3.813-0.12364 1.3391 0.47939 2.6794 1.6562 3.75 1.7217 1.5662 4.5353 2.5 7.5312 2.5s5.8094-0.93383 7.5312-2.5c1.075-0.97766 1.6562-2.1551 1.6562-3.375 0-0.09948 0.0114-0.24227 0-0.375-0.12-1.2916-0.916-2.4839-2.188-3.438-0.036-0.5044-0.344-4.875-0.344-4.875-0.017-0.2437-0.176-0.4572-0.375-0.5938-0.199-0.1365-0.442-0.2187-0.719-0.2187h-3.0312zm0 0.53125h3.0312c0.06724 0 0.12597 0.018412 0.15625 0.03125l0.375 5.125c-0.0035 0.020687-0.0035 0.041813 0 0.0625 0.0091 0.011612 0.01964 0.022101 0.03125 0.03125 0.01556 0.025516 0.03698 0.046944 0.0625 0.0625 1.232 0.84283 1.959 2.1272 2.0625 3.25 0.12887 1.3951-0.69926 2.5486-2.1875 3.4062-1.4882 0.85766-3.6257 1.375-6.0625 1.375s-4.5743-0.51734-6.0625-1.375c-1.4877-0.857-2.3158-2.011-2.187-3.406 0.1109-1.2003 0.9556-2.5362 2.3438-3.406 0.0116-0.0091 0.0221-0.0196 0.0312-0.0312 0.0046-0.0041 0.0687-0.0477 0.1562-0.0938 0.0876-0.0461 0.2082-0.0951 0.3438-0.1562 0.2712-0.1224 0.601-0.2644 0.9688-0.4063 0.7355-0.2837 1.5683-0.5498 1.9687-0.625 0.010399 0.0008695 0.020851 0.0008695 0.03125 0 1.2093-0.36821 2.3581-0.8066 3.25-1.4062 0.87385-0.5875 1.5033-1.369 1.5625-2.4062 0.02028-0.00976 0.06108-0.03125 0.125-0.03125z" fill="url(#radialGradient8471)"/>
			<path d="m12 13c-1.682 0-2.9723-0.845-2.9995-1.965-0.0003-0.013-0.0005-0.024-0.0005-0.036 0-0.406 0.1691-0.791 0.4903-1.1179 0.5437-0.5519 1.4817-0.8813 2.5097-0.8813s1.9662 0.32942 2.5096 0.8813c0.33072 0.33567 0.50019 0.73466 0.48986 1.1533-0.028 1.12-1.318 1.965-3 1.965v-0.000063 0.000003zm0.05026-2.746c-1.5809 0-2.4365 0.21014-2.4175 0.97447 0.01833 0.75242 1.0782 1.3536 2.3673 1.3536 1.2892 0 2.349-0.60139 2.3673-1.3536 0.01876-0.76453-0.73621-0.97447-2.3171-0.97447z" fill="url(#radialGradient8464)"/>
			<path d="m4.9688 1.75c-0.0672 0.0181-0.1238 0.0634-0.1562 0.125-0.0133 0.0193-0.0239 0.0403-0.0313 0.0625l-0.0625 0.2187-0.8438 3.25-0.125 0.5313c-0.0059 0.031-0.0059 0.0628 0 0.0937 0.0041 0.0331 0.0147 0.0649 0.0312 0.0938 0.0325 0.0616 0.0891 0.1069 0.1563 0.125 0.040995 0.010584 0.084005 0.010584 0.125 0l0.40625-0.125 6.875-2.0312h0.031c0.01041 0.0006516 0.02084 0.0006516 0.03125 0 0.01041 0.0006516 0.02084 0.0006516 0.03125 0 0.022-0.0074 0.043-0.018 0.062-0.0312 0.46-0.2538 0.695-0.7426 0.75-1.1876 0.028-0.2282 0.008-0.4564-0.062-0.6562-0.042-0.1136-0.128-0.2213-0.22-0.3126-0.092-0.0912-0.212-0.161-0.374-0.1562h-6.563c-0.0208-0.0026-0.0417-0.0026-0.0625 0zm0.5 0.6875h5.9062c-0.015 0.0778-0.035 0.1306-0.063 0.2187-0.049 0.1619-0.145 0.2934-0.124 0.2813l-6.2505 1.8125 0.5313-2.3125z" fill="url(#radialGradient8475)"/>
			<g transform="matrix(-.097811 0 0 .10767 8.1622 -3.8183)">
				<path d="m48.3 190.28c0.31446 4.2476 5.0238 7.7116 10.514 7.7116 5.4879 0 9.6432-3.464 9.2763-7.7116-0.36437-4.2251-5.0712-7.6367-10.507-7.6367-5.438 0.002-9.5933 3.4116-9.2838 7.6367z" fill="#e6e6e6"/>
				<path d="m51.851 187.29c-0.50163 0.53906-1.0756 1.4026-1.0756 2.5506 0 0.0824 0.005 0.16471 0.01 0.25206 0.21713 2.9274 3.8932 5.4006 8.026 5.4006 2.3534 0 4.5046-0.81109 5.7525-2.1737 0.53656-0.58149 1.148-1.5448 1.0382-2.8276-0.25206-2.9024-3.9232-5.3557-8.021-5.3557-2.3359 0.002-4.4797 0.8061-5.73 2.1538h-0.00002z" fill="url(#radialGradient8498)"/>
			</g>
			<g transform="matrix(.097811 0 0 .10767 15.777 -3.8183)">
				<path d="m48.3 190.28c0.31446 4.2476 5.0238 7.7116 10.514 7.7116 5.4879 0 9.6432-3.464 9.2763-7.7116-0.36437-4.2251-5.0712-7.6367-10.507-7.6367-5.438 0.002-9.5933 3.4116-9.2838 7.6367z" fill="#e6e6e6"/>
				<path d="m51.851 187.29c-0.50163 0.53906-1.0756 1.4026-1.0756 2.5506 0 0.0824 0.005 0.16471 0.01 0.25206 0.21713 2.9274 3.8932 5.4006 8.026 5.4006 2.3534 0 4.5046-0.81109 5.7525-2.1737 0.53656-0.58149 1.148-1.5448 1.0382-2.8276-0.25206-2.9024-3.9232-5.3557-8.021-5.3557-2.3359 0.002-4.4797 0.8061-5.73 2.1538h-0.00002z" fill="url(#radialGradient8498)"/>
			</g>
			<path stroke-linejoin="round" d="m18.611 7.5098-6.6112 7-6.6112-7h3.1112v-6h7v6h3.1112z" stroke="#548820" stroke-linecap="round" stroke-width=".98046" fill="url(#linearGradient2834)"/>
			<path opacity=".354" stroke="url(#linearGradient2831)" stroke-width=".98046" d="m16.394 8.5098-4.3945 4.5863-4.348-4.5863h1.848v-6h5v6h1.8945z" fill="none"/>
		</g>
		<g id="preferences-system" transform="translate(-757.71 109.65)">
			<path opacity=".3" d="m23.414 20.495c0 1.936-5.11 3.505-11.414 3.505-6.3037 0-11.414-1.569-11.414-3.505 0-1.9357 5.1102-3.5049 11.414-3.5049 6.3037 0 11.414 1.5692 11.414 3.5049z" fill="url(#radialGradient2919)"/>
			<path opacity=".1" d="m21.785 9.6573h-0.82852c-0.22361 0-0.48217-0.18578-0.55326-0.39734-0.004-0.010999-0.51419-1.2441-0.51419-1.2441-0.105-0.21087-0.05423-0.52417 0.1038-0.68211l0.5858-0.58484c0.13462-0.13457 0.20898-0.31399 0.20898-0.50526 0-0.19128-0.07437-0.3707-0.20898-0.50509l-2.306-2.3028c-0.134-0.1344-0.314-0.2084-0.506-0.2086-0.19159 0-0.37131 0.074071-0.50593 0.20864l-0.585 0.5849c-0.158 0.1576-0.472 0.2084-0.672 0.1088-0.01-0.0052-1.246-0.5144-1.246-0.5144-0.223-0.0751-0.409-0.3332-0.409-0.5565v-0.8273c0-0.3941-0.321-0.7146-0.716-0.7146h-3.2618c-0.39472 0-0.71577 0.32052-0.71577 0.71459v0.82733c0 0.22324-0.18609 0.48138-0.39799 0.55235-0.0106 0.0041-1.2457 0.5133-1.2457 0.5133-0.2112 0.1048-0.5252 0.054-0.6833-0.1038l-0.5859-0.5846c-0.1347-0.1345-0.3145-0.2086-0.5061-0.2086-0.19159 0-0.37131 0.074243-0.50593 0.20864l-2.3067 2.3028c-0.27904 0.27858-0.27904 0.73177 0 1.0104l0.5858 0.58484c0.1579 0.1577 0.2088 0.4712 0.109 0.6707-0.0052 0.0112-0.5154 1.2443-0.5154 1.2443-0.0752 0.2227-0.3336 0.4083-0.5572 0.4083h-0.6138c-0.3945 0.0002-0.9304 0.3207-0.9304 0.7149v3.2562c0 0.39407 0.32105 0.71459 0.71577 0.71459h0.82869c0.22361 0 0.48217 0.18561 0.55309 0.39734 0.00413 0.011 0.51436 1.2441 0.51436 1.2441 0.10501 0.21087 0.054053 0.52417-0.1038 0.68211l-0.5858 0.58484c-0.27904 0.27858-0.27904 0.73177 0 1.0104l2.3067 2.3027c0.13462 0.13439 0.31433 0.20864 0.50593 0.20864 0.19177 0 0.37148-0.07425 0.5061-0.20864l0.5858-0.58484c0.15803-0.15759 0.47201-0.20846 0.67187-0.10879 0.01119 0.0052 1.2463 0.51455 1.2463 0.51455 0.22292 0.0751 0.40901 0.33306 0.40901 0.5563v0.82716c0 0.39407 0.32105 0.71459 0.71577 0.71459h3.2616c0.39455 0 0.7156-0.32052 0.7156-0.71459v-0.82716c0-0.22324 0.18609-0.48137 0.39816-0.55235 0.01102-0.004 1.2461-0.51334 1.2461-0.51334 0.21122-0.10483 0.52538-0.05413 0.68323 0.10363l0.5858 0.58484c0.13462 0.13439 0.31433 0.20864 0.50593 0.20864 0.19159 0 0.37131-0.07425 0.50593-0.20864l2.3065-2.3027c0.13462-0.13439 0.20898-0.31381 0.20898-0.50509s-0.07436-0.3707-0.20898-0.50509l-0.5858-0.58484c-0.15803-0.15777-0.20881-0.47124-0.10896-0.67076 0.0052-0.01117 0.51539-1.2443 0.51539-1.2443 0.07522-0.22256 0.33361-0.40834 0.55722-0.40834h0.82852c0.39473 0 0.71577-0.32052 0.71577-0.71459v-3.2566c0-0.3932-0.321-0.7137-0.716-0.7137zm-9.7849 5.3831c-1.6792 0-3.0455-1.3639-3.0455-3.0404s1.3663-3.0405 3.0455-3.0405c1.6794 0 3.0454 1.364 3.0454 3.0405 0 1.6767-1.366 3.0404-3.0454 3.0404z" fill="#030303"/>
			<path stroke-linejoin="round" d="m21.785 9.6533h-0.82852c-0.22361 0-0.48217-0.18612-0.55326-0.39802-0.004-0.011-0.514-1.246-0.514-1.246-0.105-0.2112-0.054-0.525 0.104-0.6831l0.586-0.5859c0.13462-0.13474 0.20898-0.3145 0.20898-0.50612 0-0.19145-0.07437-0.37122-0.20898-0.50595l-2.307-2.3065c-0.134-0.1347-0.314-0.2089-0.506-0.2089-0.19159 0-0.37131 0.074243-0.50593 0.20898l-0.585 0.5856c-0.158 0.158-0.472 0.2089-0.672 0.109-0.011-0.0052-1.247-0.5152-1.247-0.5152-0.223-0.0753-0.409-0.3338-0.409-0.5574v-0.8287c0-0.3947-0.321-0.7158-0.716-0.7158h-3.2618c-0.39472 0-0.71577 0.32103-0.71577 0.71579v0.8287c0 0.22359-0.18609 0.48224-0.39799 0.55321-0.0106 0.0042-1.2457 0.5142-1.2457 0.5142-0.2112 0.1051-0.5252 0.0542-0.6833-0.1038l-0.5853-0.5857c-0.1347-0.1347-0.3145-0.2089-0.5061-0.2089s-0.3713 0.0744-0.5059 0.209l-2.3067 2.3065c-0.27904 0.2791-0.27904 0.73315 0 1.0121l0.5858 0.5858c0.1579 0.1579 0.2088 0.4719 0.109 0.672-0.0052 0.0111-0.5154 1.2463-0.5154 1.2463-0.0752 0.2231-0.3336 0.409-0.5572 0.409h-0.6139c-0.3945-0.0002-0.9304 0.3209-0.9304 0.7155v3.2617c0 0.39459 0.32105 0.71562 0.71577 0.71562h0.8287c0.22361 0 0.48217 0.18595 0.55309 0.39802 0.00413 0.011 0.51436 1.246 0.51436 1.246 0.10501 0.21122 0.054053 0.5252-0.1038 0.68331l-0.5858 0.58587c-0.27904 0.27893-0.27904 0.73315 0 1.0121l2.3067 2.3065c0.13462 0.13474 0.31433 0.20898 0.50593 0.20898 0.19177 0 0.37148-0.07424 0.5061-0.20898l0.5858-0.5857c0.15803-0.15794 0.47201-0.20898 0.67187-0.10896 0.01119 0.005 1.2463 0.51523 1.2463 0.51523 0.22292 0.07528 0.40901 0.33358 0.40901 0.55734v0.82853c0 0.39476 0.32105 0.71579 0.71577 0.71579h3.2616c0.39455 0 0.7156-0.32103 0.7156-0.71579v-0.82853c0-0.22376 0.18609-0.48224 0.39816-0.55339 0.01102-0.004 1.2461-0.5142 1.2461-0.5142 0.21122-0.10501 0.52538-0.05396 0.68323 0.1038l0.5858 0.5857c0.13462 0.13474 0.31433 0.20898 0.50593 0.20898 0.19159 0 0.37131-0.07424 0.50593-0.20898l2.3065-2.3065c0.13462-0.13457 0.20898-0.31433 0.20898-0.50595s-0.07436-0.37139-0.20898-0.50595l-0.5858-0.58587c-0.15803-0.15794-0.20881-0.4721-0.10896-0.6718 0.0052-0.01134 0.51539-1.2463 0.51539-1.2463 0.07522-0.22324 0.33361-0.4092 0.55722-0.4092h0.82852c0.39473 0 0.71577-0.32103 0.71577-0.71562v-3.2617c0-0.3946-0.321-0.7157-0.716-0.7157v0zm-9.7849 5.6275c-1.8218 0-3.3038-1.4795-3.3038-3.2981 0-1.8188 1.482-3.2983 3.3038-3.2983 1.8216 0 3.3036 1.4795 3.3036 3.2983 0 1.8186-1.482 3.2981-3.3036 3.2981z" stroke="#818181" stroke-linecap="round" stroke-width=".999" fill="#626262"/>
			<path d="m21.769 9.8498h-0.82748c-0.3059 0-0.63417-0.23579-0.73161-0.52554l-0.509-1.2298c-0.136-0.2723-0.072-0.6703 0.145-0.8865l0.5846-0.5838c0.0988-0.098647 0.15338-0.23029 0.15338-0.37104 0-0.14058-0.0544-0.27222-0.15338-0.37087l-2.304-2.2988c-0.099-0.0986-0.231-0.1529-0.372-0.1529-0.14081 0-0.27284 0.054307-0.37166 0.15295l-0.584 0.5838c-0.217 0.216-0.615 0.2806-0.889 0.1438l-1.232-0.508c-0.289-0.0968-0.525-0.4243-0.525-0.7299v-0.8261c0-0.28924-0.23566-0.52451-0.52538-0.52451h-3.2564c-0.28989 0-0.52555 0.23527-0.52555 0.52451v0.826c0 0.30556-0.23618 0.63313-0.52641 0.7304l-1.2319 0.50801c-0.2738 0.1361-0.6726 0.0717-0.889-0.1443l-0.5848-0.5838c-0.0988-0.0987-0.2307-0.153-0.3717-0.153-0.14081 0-0.27267 0.054307-0.37148 0.15295l-2.3027 2.299c-0.20485 0.20451-0.20485 0.53723 0 0.74174l0.5845 0.5839c0.2164 0.216 0.2811 0.6142 0.1441 0.8876l-0.5089 1.2298c-0.0969 0.2888-0.4248 0.5244-0.7311 0.5244h-0.6123c-0.28558 0-0.74021 0.24009-0.74021 0.52468v3.2509c0 0.28941 0.23566 0.52468 0.52538 0.52468h0.82732c0.30607 0 0.63417 0.23579 0.73143 0.52572l0.50902 1.2298c0.1364 0.272 0.0718 0.67-0.1445 0.886l-0.5848 0.584c-0.20485 0.20451-0.20485 0.5374 0 0.74174l2.3027 2.299c0.098638 0.09864 0.23067 0.15312 0.37148 0.15312s0.27285-0.05431 0.37166-0.15312l0.58477-0.58363c0.21638-0.2162 0.61524-0.28064 0.88912-0.14402l1.2319 0.50784c0.2892 0.09675 0.52521 0.42449 0.52521 0.73006v0.82578c0 0.28941 0.23566 0.52468 0.52555 0.52468h3.2562c0.28972 0 0.52538-0.23528 0.52538-0.52468v-0.82578c0-0.30556 0.23635-0.63347 0.52658-0.7304 0-0.000171 1.2319-0.50802 1.2319-0.50802 0.27267-0.13611 0.67136-0.07166 0.88791 0.14454l0.5846 0.58363c0.09881 0.09864 0.23084 0.15312 0.37166 0.15312 0.14064 0 0.27285-0.05431 0.37131-0.15312l2.3028-2.299c0.09881-0.09848 0.15338-0.23029 0.15338-0.37087s-0.0544-0.27222-0.15338-0.37087l-0.584-0.584c-0.217-0.216-0.281-0.614-0.145-0.888l0.50885-1.2296c0.09692-0.28872 0.42519-0.52451 0.73109-0.52451h0.82749c0.28971 0 0.52538-0.23528 0.52538-0.52468v-3.2509c0.001-0.288-0.235-0.5232-0.524-0.5232zm-9.7687 7.4777c-2.933 0-5.3192-2.3823-5.3192-5.3104s2.3862-5.3104 5.3192-5.3104 5.3192 2.3823 5.3192 5.3104-2.3862 5.3104-5.3192 5.3104z" fill="url(#linearGradient2914)"/>
			<path stroke="url(#linearGradient2911)" d="m12 5.6097c-3.6052 0-6.5383 2.9283-6.5383 6.5276s2.9331 6.5276 6.5383 6.5276 6.5383-2.9283 6.5383-6.5276c0-3.599-2.933-6.5273-6.538-6.5273zm0 11.329c-2.656 0-4.8089-2.1491-4.8089-4.8009s2.1528-4.8009 4.8089-4.8009c2.656 0 4.8089 2.1493 4.8089 4.8009 0 2.6517-2.1528 4.8009-4.8089 4.8009z" fill="url(#linearGradient2909)"/>
			<path stroke="url(#linearGradient2906)" stroke-width=".18122" d="m12 6.3866c-3.1053 0-5.6225 2.5131-5.6225 5.6133s2.5173 5.6133 5.6225 5.6133c3.1053 0 5.6225-2.5131 5.6225-5.6133s-2.5173-5.6133-5.6225-5.6133zm0 9.3253c-2.0537 0-3.7181-1.6619-3.7181-3.712 0-2.0503 1.6645-3.712 3.7181-3.712 2.0535 0 3.7181 1.6617 3.7181 3.712 0 2.0501-1.6646 3.712-3.7181 3.712z" fill="url(#linearGradient2904)"/>
			<g transform="matrix(-1,0,0,1,23,1)">
				<path stroke-linejoin="round" style="enable-background:new" d="m4.8244 0.50034c-0.5111-0.13595-0.2403 0.47541-0.0769 0.68666 0.4691 0.8496 0.9619 1.6875 1.4159 2.5447 0.1256 0.6146-0.4158 1.1077-0.8604 1.4398-0.6534 0.4323-1.505 0.5977-2.303 0.3559-0.8141-0.856-1.2952-1.7904-1.8859-2.8307-0.47838-0.6967-0.54099 0.4202-0.56959 0.7374-0.16386 1.4211 0.10902 3.0405 1.2326 4.0257 0.8637 0.7669 2.0914 1.0617 3.2192 0.857 1.013 0.3182 3.1513 1.5719 3.9045 2.3302 0.6918-0.7357 1.0244-0.981 1.7162-1.7164-0.6721-0.6611-1.8397-2.6827-2.186-3.5625 0.339-1.2407-0.1225-2.6062-1.06-3.4661-0.6602-0.6325-1.6664-1.147-2.5466-1.4017z" fill-rule="evenodd" stroke-dashoffset=".3612" stroke="#606060" stroke-linecap="round" stroke-width="1.1" fill="#c8c8c8"/>
				<path style="enable-background:new" fill-rule="evenodd" d="m4.808 0.78125c0.6724 1.5774 2.4588 3.1002 1.0206 4.2188-0.6624 0.6304-1.5745 1.1578-2.4986 1.071-0.354-0.029-0.7487-0.2472-0.8871-0.5682-0.4602-0.8228-1.0923-1.7864-1.5525-2.6092-0.05609 1.5782-0.2479 3.1645 0.938 4.2928 1.1351 1.0866 3.1393 1.35 4.5229 0.203 0.9546-0.6374 1.7013-1.7162 1.6477-2.9014-0.0051-0.9478-0.5322-1.8138-1.2442-2.4084-0.5472-0.4728-1.2637-1.061-1.9468-1.2984z" fill="url(#linearGradient3272)"/>
				<path opacity=".7" stroke-linejoin="round" style="enable-background:new" d="m7.585 5.3454c0.3025-1.4355-0.2863-2.381-1.3199-3.3454 0.4138 1.3115 0.5582 2.1436-0.374 3.4362-1.7427 1.2519-3.6494 1.3403-4.4835-0.7687 0.0769 2.3133 1.2802 3.1011 3.554 3.0796" stroke-dashoffset=".3612" stroke="url(#linearGradient3274)" stroke-linecap="round" fill="none"/>
				<path stroke-linejoin="round" style="enable-background:new" d="m8.443 10.409 9.7053 10.622c0.69781 0.69616 1.8925 0.60502 2.6903-0.19091 0.79782-0.79593 0.88918-1.9878 0.19136-2.6839l-10.652-9.681-1.935 1.934zm10.334 8.375c0.39662-0.39568 1.0444-0.39568 1.441-0.000003 0.39662 0.39568 0.39662 1.0413 0 1.437-0.39662 0.39567-1.1214 0.47467-1.518 0.079-0.39662-0.39568-0.31962-1.1203 0.077-1.516z" stroke-dashoffset=".7" stroke="url(#linearGradient3278)" stroke-linecap="round" stroke-width=".99963" fill="url(#linearGradient3276)"/>
				<path opacity=".23106" d="m10.684 10.736c0.27724-0.27646 0.74349-0.2569 1.0454 0.04386l6.3286 5.6384c0.30191 0.30076-0.01223 1.0989-0.28948 1.3753-0.27724 0.27646-1.0777 0.59048-1.3796 0.28972l-5.6604-6.3054c-0.302-0.301-0.322-0.766-0.045-1.042z" fill="url(#linearGradient3280)"/>
			</g>
		</g>
	</g>
</svg>
