<!DOCTYPE svg PUBLIC "-//W3C//DTD SVG 1.1//EN" "http://www.w3.org/Graphics/SVG/1.1/DTD/svg11.dtd">
<!--
 * Humanity icon theme
 * License: GNU GPL 2 http://www.gnu.org/licenses/gpl-2.0.html
 * File cleaned with: python scour -enable-id-stripping -indent=tab -strip-xml-prolog
-->
<svg xmlns="http://www.w3.org/2000/svg" width="24" height="24" version="1.1">
	<defs>
		<linearGradient id="linearGradient4547" y2="2.9062" gradientUnits="userSpaceOnUse" x2="-51.786" gradientTransform="matrix(.43837 0 0 .45754 31.224 -.77865)" y1="50.786" x1="-51.786">
			<stop stop-color="#8d8f8a" offset="0"/>
			<stop stop-color="#cbcbcb" offset="1"/>
		</linearGradient>
		<linearGradient id="linearGradient4545" y2="47.013" gradientUnits="userSpaceOnUse" x2="25.132" gradientTransform="matrix(.54288 0 0 .48891 -1.0291 -.23377)" y1="6.7287" x1="25.132">
			<stop stop-color="#f4f4f4" offset="0"/>
			<stop stop-color="#dbdbdb" offset="1"/>
		</linearGradient>
		<linearGradient id="linearGradient4565" y2="5.8215" gradientUnits="userSpaceOnUse" x2="15.18" gradientTransform="translate(0,1)" y1="2.1849" x1="17.289">
			<stop stop-color="#cacaca" offset="0"/>
			<stop stop-color="#949492" offset="1"/>
		</linearGradient>
		<linearGradient id="linearGradient4543" y2="5.4565" gradientUnits="userSpaceOnUse" x2="36.358" gradientTransform="matrix(.54163 0 0 .52030 -.94021 .69814)" y1="8.059" x1="32.892">
			<stop stop-color="#fefefe" offset="0"/>
			<stop stop-color="#cbcbcb" offset="1"/>
		</linearGradient>
		<linearGradient id="linearGradient3140" y2="32.485" gradientUnits="userSpaceOnUse" x2="24.104" gradientTransform="matrix(.46913 0 0 .46630 7.7005 6.8085)" y1="15.169" x1="24.104">
			<stop stop-color="#d7e866" offset="0"/>
			<stop stop-color="#8cab2a" offset="1"/>
		</linearGradient>
		<linearGradient id="linearGradient3137" y2="47.273" gradientUnits="userSpaceOnUse" x2="24.139" gradientTransform="matrix(.28180 0 0 .28010 12.197 11.015)" y1="7.0479" x1="24.139">
			<stop stop-color="#fff" stop-opacity="0.4" offset="0"/>
			<stop stop-color="#fff" stop-opacity="0" offset="1"/>
		</linearGradient>
	</defs>
	<g>
		<path stroke-linejoin="round" d="m3.5 1.5h12.062c0.7638 0.23731 4.8672 2.9401 5.9387 4.812v16.188h-18v-21z" stroke="url(#linearGradient4547)" stroke-width=".99914" fill="url(#linearGradient4545)"/>
		<path stroke-linejoin="round" d="m15.5 1.5v5h6c0-0.83659-4.8205-4.9857-6-5z" fill-rule="evenodd" stroke="url(#linearGradient4565)" fill="url(#linearGradient4543)"/>
		<path stroke-linejoin="round" d="m16.5 15.5v-3h4v3h3v4h-3v3h-4v-3h-2.9895v-4h2.9895z" fill-rule="evenodd" stroke="#699536" fill="url(#linearGradient3140)"/>
		<path d="m17.5 16.5v-3h2v3h3v2h-3v3h-2v-3h-3v-2h3z" stroke="url(#linearGradient3137)" fill="none"/>
	</g>
</svg>
