<!DOCTYPE svg PUBLIC "-//W3C//DTD SVG 1.1//EN" "http://www.w3.org/Graphics/SVG/1.1/DTD/svg11.dtd">
<!--
 * Humanity icon theme
 * License GNU GPL 2 http://www.gnu.org/licenses/gpl-2.0.html
 * File cleaned with python scour -enable-id-stripping -indent=tab -strip-xml-prolog
-->
<svg xmlns="http://www.w3.org/2000/svg" width="16" height="16" version="1.1">
	<defs>
		<linearGradient id="linearGradient2406" y2="5.4676" gradientUnits="userSpaceOnUse" x2="63.397" gradientTransform="matrix(.74324 0 0 .74322 -38.23 10.609)" y1="-12.489" x1="63.397">
			<stop stop-color="#fff" offset="0"/>
			<stop stop-color="#fff" stop-opacity="0" offset="1"/>
		</linearGradient>
		<linearGradient id="linearGradient2411" y2="3.0816" gradientUnits="userSpaceOnUse" x2="18.379" gradientTransform="matrix(.36857 0 0 .36857 -.84577 -.84577)" y1="44.98" x1="18.379">
			<stop stop-color="#791235" offset="0"/>
			<stop stop-color="#dd3b27" offset="1"/>
		</linearGradient>
		<radialGradient id="radialGradient2409" gradientUnits="userSpaceOnUse" cy="3.99" cx="23.896" gradientTransform="matrix(0 .87966 -1.1611 0 12.633 -21.084)" r="20.397">
			<stop stop-color="#f8b17e" offset="0"/>
			<stop stop-color="#e35d4f" offset=".26238"/>
			<stop stop-color="#c6262e" offset=".66094"/>
			<stop stop-color="#690b54" offset="1"/>
		</radialGradient>
	</defs>
	<g>
		<path stroke-linejoin="round" d="m8 0.50183c-4.1372 0-7.4982 3.3609-7.4982 7.4982 0 4.1372 3.3609 7.4982 7.4982 7.4982 4.1372 0 7.4982-3.3609 7.4982-7.4982 0-4.1372-3.3609-7.4982-7.4982-7.4982z" stroke="url(#linearGradient2411)" stroke-linecap="round" stroke-width="1.0037" fill="url(#radialGradient2409)"/>
		<path opacity=".4" d="m14.5 7.9998c0 3.5902-2.91 6.5002-6.4999 6.5002s-6.5001-2.91-6.5001-6.5002c0-3.5898 2.9102-6.4998 6.5001-6.4998 3.5896 0 6.4999 2.91 6.4999 6.4998z" stroke="url(#linearGradient2406)" fill="none"/>
	</g>
	<path opacity=".2" d="m5.2625 3-1.2625 1.2625 2.6047 2.5913c0.080018 0.081027 0.080018 0.21133 0 0.29236l-2.6047 2.5913 1.2625 1.2625 2.5913-2.5914c0.081026-0.080018 0.21133-0.080018 0.29236 0l2.5918 2.5914 1.262-1.2625-2.5914-2.5913c-0.080018-0.081026-0.080018-0.21133 0-0.29236l2.5914-2.5913-1.262-1.2625-2.5918 2.5914c-0.081027 0.080018-0.21133 0.080018-0.29236 0l-2.5913-2.5914z" fill-rule="evenodd"/>
	<path d="m5.2625 4-1.2625 1.2625 2.6047 2.5913c0.080018 0.081027 0.080018 0.21133 0 0.29236l-2.6047 2.5918 1.2625 1.262 2.5913-2.5914c0.081026-0.080018 0.21133-0.080018 0.29236 0l2.5918 2.5914 1.262-1.262-2.5914-2.5918c-0.080018-0.081027-0.080018-0.21133 0-0.29236l2.5914-2.5913-1.262-1.2625-2.5918 2.5914c-0.081027 0.080018-0.21133 0.080018-0.29236 0l-2.5913-2.5914z" fill-rule="evenodd" fill="#fff"/>
</svg>
