<!DOCTYPE svg PUBLIC "-//W3C//DTD SVG 1.1//EN" "http://www.w3.org/Graphics/SVG/1.1/DTD/svg11.dtd">
<!--
 * Humanity icon theme
 * License GNU GPL 2 http://www.gnu.org/licenses/gpl-2.0.html
 * File cleaned with python scour -enable-id-stripping -indent=tab -strip-xml-prolog
-->
<svg xmlns="http://www.w3.org/2000/svg" width="24" height="24" version="1.1">
	<defs>
		<linearGradient id="linearGradient5060-4">
			<stop offset="0"/>
			<stop stop-opacity="0" offset="1"/>
		</linearGradient>
		<linearGradient id="linearGradient3041" y2="57.567" gradientUnits="userSpaceOnUse" x2="29.291" gradientTransform="matrix(.51842 0 -.0022567 .51518 -3.0553 -7.926)" y1="19.788" x1="29.127">
			<stop stop-color="#fff" offset="0"/>
			<stop stop-color="#fff" stop-opacity="0" offset="1"/>
		</linearGradient>
		<linearGradient id="linearGradient3044" y2="47" gradientUnits="userSpaceOnUse" x2="24" gradientTransform="matrix(.51113 0 0 .48839 -.26717 .74243)" y1="-3" x1="24">
			<stop stop-color="#edd563" offset="0"/>
			<stop stop-color="#e08223" offset="1"/>
		</linearGradient>
		<linearGradient id="linearGradient3046" y2="-3" gradientUnits="userSpaceOnUse" x2="20" gradientTransform="matrix(.51113 0 0 .48839 -.26717 .74243)" y1="47" x1="20">
			<stop stop-color="#bb5e12" offset="0"/>
			<stop stop-color="#cd8033" offset="1"/>
		</linearGradient>
		<linearGradient id="linearGradient3054" y2="609.51" gradientUnits="userSpaceOnUse" x2="302.86" gradientTransform="matrix(.043725 0 0 .024706 .19658 16.942)" y1="366.65" x1="302.86">
			<stop stop-opacity="0" offset="0"/>
			<stop offset=".5"/>
			<stop stop-opacity="0" offset="1"/>
		</linearGradient>
		<radialGradient id="radialGradient3056" gradientUnits="userSpaceOnUse" cy="486.65" cx="605.71" gradientTransform="matrix(.043725 0 0 .024706 .20519 16.942)" r="117.14"/>
		<radialGradient id="radialGradient3058" gradientUnits="userSpaceOnUse" cy="486.65" cx="605.71" gradientTransform="matrix(-.043725 0 0 .024706 31.795 16.942)" r="117.14"/>
	</defs>
	<g transform="matrix(.75 0 0 .5 0 8)">
		<rect opacity=".5" height="6" width="21.113" y="26" x="5.4436" fill="url(#linearGradient3054)"/>
		<path opacity=".5" d="m26.556 26v5.9997c2.2517 0.01129 5.4436-1.3442 5.4436-3.0002s-2.5128-2.9994-5.4436-2.9994z" fill="url(#radialGradient3056)"/>
		<path opacity=".5" d="m5.4436 26v5.9997c-2.2518 0.011-5.4436-1.344-5.4436-3s2.5128-3 5.4436-3z" fill="url(#radialGradient3058)"/>
	</g>
	<path d="m23.336 20.278-9.982-18c-0.287-0.5002-0.806-0.778-1.384-0.778-0.57823 0-1.1001 0.33327-1.3914 0.83328l-9.9091 18c-0.23322 0.44436-0.2359 1.0555 0.051232 1.5 0.28717 0.44436 0.74879 0.66675 1.327 0.66675h19.891c0.57822 0 1.0998-0.27783 1.333-0.72219 0.29105-0.44436 0.29348-1 0.0643-1.5z" stroke="url(#linearGradient3046)" fill="url(#linearGradient3044)"/>
	<path opacity=".4" d="m22.032 19.512-8.972-16.096c-0.38213-0.69339-0.51919-0.91585-1.0999-0.91585-0.49947 0-0.76081 0.32399-1.1217 0.97849l-8.8727 16.082c-0.51523 0.90295-0.57043 1.1383-0.32244 1.5357 0.24799 0.39743 0.56641 0.37578 1.7429 0.4017h17.439c1.0953 0.01295 1.342-0.06692 1.5436-0.46434 0.25147-0.39743 0.14451-0.71274-0.33614-1.5228z" stroke="url(#linearGradient3041)" fill="none"/>
	<path opacity=".2" d="m10.599 7.2867c0.33194 2.8104 0.71217 5.6015 0.99474 8.423h0.90177c0.23438-2.7095 0.61243-5.4026 0.88514-8.1087 0.139-0.6408-0.241-1.4016-1.021-1.5573-0.772-0.1955-1.634 0.2886-1.736 0.9801-0.01701 0.0868-0.0246 0.1749-0.0246 0.26292h-0.000002zm-0.09838 11.426c-0.0351 0.83656 1.0269 1.4923 1.9336 1.2271 0.87824-0.19428 1.3408-1.151 0.89072-1.8311-0.40292-0.70303-1.5844-0.93466-2.2641-0.3966-0.34357 0.24465-0.57128 0.60988-0.56022 1.0006v-0.000001z"/>
	<path fill="#fff" d="m10.599 8.2867c0.33194 2.8104 0.71217 5.6016 0.99474 8.423h0.90177c0.23438-2.7095 0.61243-5.4026 0.88514-8.1087 0.139-0.6408-0.241-1.4016-1.021-1.5573-0.772-0.1955-1.634 0.2886-1.736 0.9801-0.01701 0.0868-0.0246 0.1749-0.0246 0.26292h-0.000002zm-0.09838 11.426c-0.0351 0.83656 1.0269 1.4923 1.9336 1.2271 0.87824-0.19428 1.3408-1.151 0.89072-1.8311-0.40292-0.70303-1.5844-0.93466-2.2641-0.3966-0.34357 0.24465-0.57128 0.60988-0.56022 1.0006v-0.000001z"/>
</svg>
