<!DOCTYPE svg PUBLIC "-//W3C//DTD SVG 1.1//EN" "http://www.w3.org/Graphics/SVG/1.1/DTD/svg11.dtd">
<!--
 * Humanity icon theme
 * License: GNU GPL 2 http://www.gnu.org/licenses/gpl-2.0.html
 * File cleaned with: python scour -enable-id-stripping -indent=tab -strip-xml-prolog
-->
<svg xmlns="http://www.w3.org/2000/svg" width="24" height="24" version="1.1">
	<defs>
		<radialGradient id="radialGradient3288" gradientUnits="userSpaceOnUse" cy="19.031" cx="11.25" gradientTransform="matrix(1.4062 0 0 .38670 -3.8197 13.523)" r="8.0625">
			<stop stop-color="#0d0d0d" offset="0"/>
			<stop stop-color="#0d0d0d" stop-opacity="0" offset="1"/>
		</radialGradient>
		<linearGradient id="linearGradient3296" y2=".98732" gradientUnits="userSpaceOnUse" x2="17.482" y1="23" x1="17.482">
			<stop stop-color="#bb2b12" offset="0"/>
			<stop stop-color="#cd7233" offset="1"/>
		</linearGradient>
		<linearGradient id="linearGradient3285" y2="44.051" gradientUnits="userSpaceOnUse" x2="22.182" gradientTransform="matrix(.51653 0 0 .53332 .54263 -.74156)" y1="14.5" x1="22.182">
			<stop stop-color="#f0c178" offset="0"/>
			<stop stop-color="#e18941" offset=".5"/>
			<stop stop-color="#ec4f18" offset="1"/>
		</linearGradient>
		<linearGradient id="linearGradient3282" y2="40.446" gradientUnits="userSpaceOnUse" x2="29.367" gradientTransform="matrix(-.59907 0 0 .61569 27.232 -3.9814)" y1="11.492" x1="29.367">
			<stop stop-color="#fff" offset="0"/>
			<stop stop-color="#fff" stop-opacity="0" offset="1"/>
		</linearGradient>
	</defs>
	<g>
		<path opacity=".16292" d="m23.337 20.882c0 1.722-5.075 3.118-11.337 3.118-6.2615 0-11.337-1.396-11.337-3.118-0.00045-1.722 5.0755-3.118 11.337-3.118 6.262 0 11.337 1.396 11.337 3.118z" fill="url(#radialGradient3288)"/>
		<path stroke-linejoin="round" d="m13.5 1.4884l-12.012 10.538 12.012 10.486v-5.012h9.012v-11h-9.012v-5.0116 0z" stroke="url(#linearGradient3296)" stroke-linecap="round" stroke-width=".97690" fill="url(#linearGradient3285)"/>
		<path opacity=".4" d="m12.5 3.5938l-9.5172 8.4062 9.5172 8.364v-3.864h9v-9h-9v-3.9062z" stroke="url(#linearGradient3282)" fill="none"/>
	</g>
</svg>
